<svg width="235" height="74" viewBox="0 0 235 74" fill="none" xmlns="http://www.w3.org/2000/svg">
<rect x="2" y="2" width="231" height="70" rx="8" fill="black" stroke="#84B6C6" stroke-width="4"/>
<path d="M38.7884 50H32.8565L41.8949 23.8182H49.0284L58.054 50H52.1222L45.5639 29.8011H45.3594L38.7884 50ZM38.4176 39.7088H52.429V44.0298H38.4176V39.7088ZM61.2053 50V23.8182H66.6513V33.6619H66.8175C67.0561 33.1335 67.4013 32.5966 67.853 32.0511C68.3132 31.4972 68.9098 31.0369 69.6428 30.6705C70.3842 30.2955 71.3047 30.108 72.4041 30.108C73.8359 30.108 75.157 30.483 76.3672 31.233C77.5774 31.9744 78.5447 33.0952 79.2692 34.5952C79.9936 36.0866 80.3558 37.9574 80.3558 40.2074C80.3558 42.3977 80.0021 44.2472 79.2947 45.7557C78.5959 47.2557 77.6413 48.3935 76.4311 49.169C75.2294 49.9361 73.8828 50.3196 72.3913 50.3196C71.3345 50.3196 70.4354 50.1449 69.6939 49.7955C68.9609 49.446 68.3601 49.0071 67.8913 48.4787C67.4226 47.9418 67.0646 47.4006 66.8175 46.8551H66.5746V50H61.2053ZM66.5362 40.1818C66.5362 41.3494 66.6982 42.3679 67.022 43.2372C67.3459 44.1065 67.8146 44.7841 68.4283 45.2699C69.0419 45.7472 69.7876 45.9858 70.6655 45.9858C71.5518 45.9858 72.3018 45.7429 72.9155 45.2571C73.5291 44.7628 73.9936 44.081 74.3089 43.2116C74.6328 42.3338 74.7947 41.3239 74.7947 40.1818C74.7947 39.0483 74.6371 38.0511 74.3217 37.1903C74.0064 36.3295 73.5419 35.6562 72.9283 35.1705C72.3146 34.6847 71.5604 34.4418 70.6655 34.4418C69.7791 34.4418 69.0291 34.6761 68.4155 35.1449C67.8104 35.6136 67.3459 36.2784 67.022 37.1392C66.6982 38 66.5362 39.0142 66.5362 40.1818ZM92.8619 50.3835C90.8761 50.3835 89.1587 49.9616 87.7099 49.1179C86.2695 48.2656 85.1573 47.081 84.3732 45.5639C83.5891 44.0384 83.1971 42.2699 83.1971 40.2585C83.1971 38.2301 83.5891 36.4574 84.3732 34.9403C85.1573 33.4148 86.2695 32.2301 87.7099 31.3864C89.1587 30.5341 90.8761 30.108 92.8619 30.108C94.8477 30.108 96.5607 30.5341 98.0011 31.3864C99.4499 32.2301 100.566 33.4148 101.35 34.9403C102.135 36.4574 102.527 38.2301 102.527 40.2585C102.527 42.2699 102.135 44.0384 101.35 45.5639C100.566 47.081 99.4499 48.2656 98.0011 49.1179C96.5607 49.9616 94.8477 50.3835 92.8619 50.3835ZM92.8874 46.1648C93.7908 46.1648 94.5451 45.9091 95.1502 45.3977C95.7553 44.8778 96.2113 44.1705 96.5181 43.2756C96.8335 42.3807 96.9911 41.3622 96.9911 40.2202C96.9911 39.0781 96.8335 38.0597 96.5181 37.1648C96.2113 36.2699 95.7553 35.5625 95.1502 35.0426C94.5451 34.5227 93.7908 34.2628 92.8874 34.2628C91.9755 34.2628 91.2085 34.5227 90.5863 35.0426C89.9727 35.5625 89.5082 36.2699 89.1928 37.1648C88.886 38.0597 88.7326 39.0781 88.7326 40.2202C88.7326 41.3622 88.886 42.3807 89.1928 43.2756C89.5082 44.1705 89.9727 44.8778 90.5863 45.3977C91.2085 45.9091 91.9755 46.1648 92.8874 46.1648ZM118.66 41.6392V30.3636H124.106V50H118.877V46.4332H118.673C118.23 47.5838 117.493 48.5085 116.461 49.2074C115.439 49.9062 114.19 50.2557 112.716 50.2557C111.403 50.2557 110.248 49.9574 109.251 49.3608C108.254 48.7642 107.474 47.9162 106.912 46.8168C106.358 45.7173 106.076 44.4006 106.068 42.8665V30.3636H111.514V41.8949C111.522 43.054 111.833 43.9702 112.447 44.6435C113.061 45.3168 113.883 45.6534 114.914 45.6534C115.571 45.6534 116.184 45.5043 116.755 45.206C117.326 44.8991 117.787 44.4474 118.136 43.8509C118.494 43.2543 118.669 42.517 118.66 41.6392ZM138.907 30.3636V34.4545H127.082V30.3636H138.907ZM129.766 25.6591H135.212V43.9659C135.212 44.4687 135.289 44.8608 135.442 45.142C135.596 45.4148 135.809 45.6065 136.082 45.7173C136.363 45.8281 136.687 45.8835 137.053 45.8835C137.309 45.8835 137.565 45.8622 137.82 45.8196C138.076 45.7685 138.272 45.7301 138.408 45.7045L139.265 49.7571C138.992 49.8423 138.609 49.9403 138.114 50.0511C137.62 50.1705 137.019 50.2429 136.312 50.2685C134.999 50.3196 133.849 50.1449 132.86 49.7443C131.88 49.3437 131.117 48.7216 130.572 47.8778C130.026 47.0341 129.758 45.9687 129.766 44.6818V25.6591ZM150.889 23.8182H157.716L164.926 41.4091H165.233L172.443 23.8182H179.27V50H173.9V32.9588H173.683L166.907 49.8722H163.251L156.475 32.8949H156.258V50H150.889V23.8182ZM192.677 50.3835C190.657 50.3835 188.918 49.9744 187.461 49.1562C186.012 48.3295 184.896 47.1619 184.112 45.6534C183.327 44.1364 182.935 42.3423 182.935 40.2713C182.935 38.2514 183.327 36.4787 184.112 34.9531C184.896 33.4276 185.999 32.2386 187.423 31.3864C188.854 30.5341 190.533 30.108 192.46 30.108C193.755 30.108 194.961 30.3168 196.077 30.7344C197.202 31.1435 198.183 31.7614 199.018 32.5881C199.862 33.4148 200.518 34.4545 200.987 35.7074C201.455 36.9517 201.69 38.4091 201.69 40.0795V41.5753H185.109V38.2003H196.563C196.563 37.4162 196.393 36.7216 196.052 36.1165C195.711 35.5114 195.238 35.0384 194.633 34.6974C194.036 34.348 193.342 34.1733 192.549 34.1733C191.722 34.1733 190.989 34.3651 190.35 34.7486C189.719 35.1236 189.225 35.6307 188.867 36.2699C188.509 36.9006 188.326 37.6037 188.317 38.3793V41.5881C188.317 42.5597 188.496 43.3991 188.854 44.1065C189.221 44.8139 189.737 45.3594 190.401 45.7429C191.066 46.1264 191.854 46.3182 192.766 46.3182C193.371 46.3182 193.925 46.233 194.428 46.0625C194.931 45.892 195.362 45.6364 195.719 45.2955C196.077 44.9545 196.35 44.5369 196.538 44.0426L201.575 44.375C201.319 45.5852 200.795 46.642 200.002 47.5455C199.218 48.4403 198.204 49.1392 196.96 49.642C195.724 50.1364 194.296 50.3835 192.677 50.3835Z" fill="white"/>
</svg>
