<svg width="118" height="118" viewBox="0 0 118 118" fill="none" xmlns="http://www.w3.org/2000/svg">
<path d="M61.9914 44.183C61.4389 42.8569 60.182 42 58.7894 42C58.7844 42 45.9116 42.0227 45.8417 42.0227C44.6069 42.0227 43.512 42.9757 43.0088 44.183L36.2883 60.3095C35.9186 61.1962 35.904 62.1797 36.247 63.0781C36.59 63.9766 37.2497 64.6827 38.1044 65.0663C38.5452 65.2638 39.0102 65.364 39.487 65.364C40.8794 65.364 42.136 64.5073 42.6885 63.1815L43.9119 60.2456V91.0159C43.9119 93.2128 45.6344 95 47.7516 95C49.869 95 51.5915 93.2125 51.5915 91.0159V70.5006H53.2198V91.0159C53.2198 93.2128 54.9424 95 57.06 95C59.1772 95 60.8995 93.2125 60.8995 91.0159V59.7924L62.3117 63.1812C62.8645 64.5071 64.1211 65.3637 65.513 65.3637C65.9898 65.3637 66.4547 65.2635 66.8956 65.066C67.7503 64.6824 68.4099 63.9766 68.7532 63.0779C69.0959 62.1797 69.0813 61.1962 68.7117 60.3093L61.9914 44.183Z" fill="#84B6C6"/>
<path d="M52.001 41C56.9631 41 61 36.9627 61 32.0003C61 27.0373 56.9629 23 52.001 23C47.0377 23 43 27.0376 43 32.0003C42.9997 36.9627 47.0377 41 52.001 41Z" fill="#84B6C6"/>
<path d="M101.344 23.29L82.7754 4.85358C79.9417 2.04117 74.9879 0 70.9963 0H21.5087C16.1286 0 11.7513 4.37736 11.7513 9.75741V108.242C11.7513 113.623 16.1286 118 21.5087 118H96.4907C101.871 118 106.249 113.623 106.249 108.242V35.0691C106.249 31.0639 104.185 26.1095 101.344 23.29ZM21.5063 108.242L21.5087 9.75505H70.9963C71.1607 9.75505 71.3416 9.77071 71.5329 9.79791V27.461C71.5329 32.8414 75.9102 37.2188 81.2903 37.2188H96.4937L96.4919 108.245L21.5063 108.242Z" fill="white"/>
</svg>
