<svg width="235" height="74" viewBox="0 0 235 74" fill="none" xmlns="http://www.w3.org/2000/svg">
<rect x="2" y="2" width="231" height="70" rx="8" fill="black" stroke="#84B6C6" stroke-width="4"/>
<path d="M57.3764 32.9844H51.777C51.6747 32.2599 51.4659 31.6165 51.1506 31.054C50.8352 30.483 50.4304 29.9972 49.9361 29.5966C49.4418 29.196 48.8707 28.8892 48.223 28.6761C47.5838 28.4631 46.8892 28.3565 46.1392 28.3565C44.7841 28.3565 43.6037 28.6932 42.598 29.3665C41.5923 30.0312 40.8125 31.0028 40.2585 32.2812C39.7045 33.5511 39.4276 35.0937 39.4276 36.9091C39.4276 38.7756 39.7045 40.3437 40.2585 41.6136C40.821 42.8835 41.6051 43.8423 42.6108 44.4901C43.6165 45.1378 44.7798 45.4616 46.1009 45.4616C46.8423 45.4616 47.5284 45.3636 48.1591 45.1676C48.7983 44.9716 49.3651 44.6861 49.8594 44.3111C50.3537 43.9276 50.7628 43.4631 51.0866 42.9176C51.419 42.3722 51.6491 41.75 51.777 41.0511L57.3764 41.0767C57.2315 42.2784 56.8693 43.4375 56.2898 44.554C55.7188 45.6619 54.9474 46.6548 53.9759 47.5327C53.0128 48.402 51.8622 49.0923 50.5241 49.6037C49.1946 50.1065 47.6903 50.358 46.0114 50.358C43.6761 50.358 41.5881 49.8295 39.7472 48.7727C37.9148 47.7159 36.4659 46.1861 35.4006 44.1832C34.3438 42.1804 33.8153 39.7557 33.8153 36.9091C33.8153 34.054 34.3523 31.625 35.4261 29.6222C36.5 27.6193 37.9574 26.0937 39.7983 25.0455C41.6392 23.9886 43.7102 23.4602 46.0114 23.4602C47.5284 23.4602 48.9347 23.6733 50.2301 24.0994C51.5341 24.5256 52.6889 25.1477 53.6946 25.9659C54.7003 26.7756 55.5185 27.7685 56.1491 28.9446C56.7884 30.1207 57.1974 31.4673 57.3764 32.9844ZM70.1158 50.3835C68.13 50.3835 66.4126 49.9616 64.9638 49.1179C63.5234 48.2656 62.4112 47.081 61.6271 45.5639C60.843 44.0384 60.451 42.2699 60.451 40.2585C60.451 38.2301 60.843 36.4574 61.6271 34.9403C62.4112 33.4148 63.5234 32.2301 64.9638 31.3864C66.4126 30.5341 68.13 30.108 70.1158 30.108C72.1016 30.108 73.8146 30.5341 75.255 31.3864C76.7038 32.2301 77.8203 33.4148 78.6044 34.9403C79.3885 36.4574 79.7805 38.2301 79.7805 40.2585C79.7805 42.2699 79.3885 44.0384 78.6044 45.5639C77.8203 47.081 76.7038 48.2656 75.255 49.1179C73.8146 49.9616 72.1016 50.3835 70.1158 50.3835ZM70.1413 46.1648C71.0447 46.1648 71.799 45.9091 72.4041 45.3977C73.0092 44.8778 73.4652 44.1705 73.772 43.2756C74.0874 42.3807 74.245 41.3622 74.245 40.2202C74.245 39.0781 74.0874 38.0597 73.772 37.1648C73.4652 36.2699 73.0092 35.5625 72.4041 35.0426C71.799 34.5227 71.0447 34.2628 70.1413 34.2628C69.2294 34.2628 68.4624 34.5227 67.8402 35.0426C67.2266 35.5625 66.7621 36.2699 66.4467 37.1648C66.1399 38.0597 65.9865 39.0781 65.9865 40.2202C65.9865 41.3622 66.1399 42.3807 66.4467 43.2756C66.7621 44.1705 67.2266 44.8778 67.8402 45.3977C68.4624 45.9091 69.2294 46.1648 70.1413 46.1648ZM88.7678 38.6477V50H83.3217V30.3636H88.5121V33.8281H88.7422C89.1768 32.6861 89.9055 31.7827 90.9283 31.1179C91.951 30.4446 93.1911 30.108 94.6484 30.108C96.0121 30.108 97.201 30.4062 98.2152 31.0028C99.2294 31.5994 100.018 32.4517 100.58 33.5597C101.143 34.6591 101.424 35.9716 101.424 37.4972V50H95.978V38.4688C95.9865 37.267 95.6797 36.3295 95.0575 35.6562C94.4354 34.9744 93.5788 34.6335 92.4879 34.6335C91.755 34.6335 91.1072 34.7912 90.5447 35.1065C89.9908 35.4219 89.5561 35.8821 89.2408 36.4872C88.9339 37.0838 88.7763 37.804 88.7678 38.6477ZM116.161 30.3636V34.4545H104.336V30.3636H116.161ZM107.02 25.6591H112.466V43.9659C112.466 44.4687 112.543 44.8608 112.696 45.142C112.85 45.4148 113.063 45.6065 113.336 45.7173C113.617 45.8281 113.941 45.8835 114.307 45.8835C114.563 45.8835 114.819 45.8622 115.074 45.8196C115.33 45.7685 115.526 45.7301 115.662 45.7045L116.519 49.7571C116.246 49.8423 115.863 49.9403 115.368 50.0511C114.874 50.1705 114.273 50.2429 113.566 50.2685C112.253 50.3196 111.103 50.1449 110.114 49.7443C109.134 49.3437 108.371 48.7216 107.826 47.8778C107.28 47.0341 107.012 45.9687 107.02 44.6818V25.6591ZM125.308 50.3707C124.055 50.3707 122.939 50.1534 121.958 49.7188C120.978 49.2756 120.203 48.6236 119.632 47.7628C119.069 46.8935 118.788 45.8111 118.788 44.5156C118.788 43.4247 118.988 42.5085 119.389 41.767C119.789 41.0256 120.335 40.429 121.025 39.9773C121.716 39.5256 122.5 39.1847 123.377 38.9545C124.264 38.7244 125.193 38.5625 126.164 38.4688C127.306 38.3494 128.227 38.2386 128.926 38.1364C129.625 38.0256 130.132 37.8636 130.447 37.6506C130.762 37.4375 130.92 37.1222 130.92 36.7045V36.6278C130.92 35.8182 130.664 35.1918 130.153 34.7486C129.65 34.3054 128.934 34.0838 128.005 34.0838C127.025 34.0838 126.245 34.3011 125.666 34.7358C125.086 35.1619 124.703 35.6989 124.515 36.3466L119.478 35.9375C119.734 34.7443 120.237 33.7131 120.987 32.8438C121.737 31.9659 122.704 31.2926 123.889 30.8239C125.082 30.3466 126.463 30.108 128.031 30.108C129.122 30.108 130.166 30.2358 131.163 30.4915C132.169 30.7472 133.059 31.1435 133.835 31.6804C134.619 32.2173 135.237 32.9077 135.689 33.7514C136.14 34.5866 136.366 35.5881 136.366 36.7557V50H131.201V47.277H131.048C130.733 47.8906 130.311 48.4318 129.782 48.9006C129.254 49.3608 128.619 49.723 127.877 49.9872C127.136 50.2429 126.279 50.3707 125.308 50.3707ZM126.868 46.6122C127.669 46.6122 128.376 46.4545 128.99 46.1392C129.603 45.8153 130.085 45.3807 130.434 44.8352C130.784 44.2898 130.958 43.6719 130.958 42.9815V40.8977C130.788 41.0085 130.554 41.1108 130.255 41.2045C129.966 41.2898 129.637 41.3707 129.271 41.4474C128.904 41.5156 128.538 41.5795 128.172 41.6392C127.805 41.6903 127.473 41.7372 127.174 41.7798C126.535 41.8736 125.977 42.0227 125.5 42.2273C125.022 42.4318 124.652 42.7088 124.387 43.0582C124.123 43.3991 123.991 43.8253 123.991 44.3366C123.991 45.0781 124.26 45.6449 124.797 46.0369C125.342 46.4205 126.032 46.6122 126.868 46.6122ZM149.463 50.3835C147.452 50.3835 145.722 49.9574 144.273 49.1051C142.833 48.2443 141.725 47.0511 140.949 45.5256C140.182 44 139.799 42.2443 139.799 40.2585C139.799 38.2472 140.186 36.483 140.962 34.9659C141.746 33.4403 142.858 32.2514 144.299 31.3991C145.739 30.5384 147.452 30.108 149.438 30.108C151.151 30.108 152.651 30.419 153.938 31.0412C155.225 31.6634 156.243 32.5369 156.993 33.6619C157.743 34.7869 158.157 36.108 158.233 37.625H153.094C152.949 36.6449 152.566 35.8565 151.944 35.2599C151.33 34.6548 150.525 34.3523 149.527 34.3523C148.684 34.3523 147.946 34.5824 147.316 35.0426C146.694 35.4943 146.208 36.1548 145.858 37.0241C145.509 37.8935 145.334 38.946 145.334 40.1818C145.334 41.4347 145.505 42.5 145.846 43.3778C146.195 44.2557 146.685 44.9247 147.316 45.3849C147.946 45.8452 148.684 46.0753 149.527 46.0753C150.15 46.0753 150.708 45.9474 151.202 45.6918C151.705 45.4361 152.118 45.0653 152.442 44.5795C152.775 44.0852 152.992 43.4929 153.094 42.8026H158.233C158.148 44.3026 157.739 45.6236 157.006 46.7656C156.282 47.8991 155.28 48.7855 154.002 49.4247C152.723 50.0639 151.211 50.3835 149.463 50.3835ZM172.165 30.3636V34.4545H160.339V30.3636H172.165ZM163.024 25.6591H168.47V43.9659C168.47 44.4687 168.547 44.8608 168.7 45.142C168.854 45.4148 169.067 45.6065 169.339 45.7173C169.621 45.8281 169.945 45.8835 170.311 45.8835C170.567 45.8835 170.822 45.8622 171.078 45.8196C171.334 45.7685 171.53 45.7301 171.666 45.7045L172.523 49.7571C172.25 49.8423 171.866 49.9403 171.372 50.0511C170.878 50.1705 170.277 50.2429 169.57 50.2685C168.257 50.3196 167.107 50.1449 166.118 49.7443C165.138 49.3437 164.375 48.7216 163.83 47.8778C163.284 47.0341 163.016 45.9687 163.024 44.6818V25.6591Z" fill="white"/>
</svg>
