<svg width="213" height="67" viewBox="0 0 213 67" fill="none" xmlns="http://www.w3.org/2000/svg">
<rect x="0.5" y="0.5" width="212" height="66" rx="9.5" fill="white" stroke="#D9D9D9"/>
<path d="M61.3764 28.9844H55.777C55.6747 28.2599 55.4659 27.6165 55.1506 27.054C54.8352 26.483 54.4304 25.9972 53.9361 25.5966C53.4418 25.196 52.8707 24.8892 52.223 24.6761C51.5838 24.4631 50.8892 24.3565 50.1392 24.3565C48.7841 24.3565 47.6037 24.6932 46.598 25.3665C45.5923 26.0312 44.8125 27.0028 44.2585 28.2812C43.7045 29.5511 43.4276 31.0937 43.4276 32.9091C43.4276 34.7756 43.7045 36.3437 44.2585 37.6136C44.821 38.8835 45.6051 39.8423 46.6108 40.4901C47.6165 41.1378 48.7798 41.4616 50.1009 41.4616C50.8423 41.4616 51.5284 41.3636 52.1591 41.1676C52.7983 40.9716 53.3651 40.6861 53.8594 40.3111C54.3537 39.9276 54.7628 39.4631 55.0866 38.9176C55.419 38.3722 55.6491 37.75 55.777 37.0511L61.3764 37.0767C61.2315 38.2784 60.8693 39.4375 60.2898 40.554C59.7188 41.6619 58.9474 42.6548 57.9759 43.5327C57.0128 44.402 55.8622 45.0923 54.5241 45.6037C53.1946 46.1065 51.6903 46.358 50.0114 46.358C47.6761 46.358 45.5881 45.8295 43.7472 44.7727C41.9148 43.7159 40.4659 42.1861 39.4006 40.1832C38.3438 38.1804 37.8153 35.7557 37.8153 32.9091C37.8153 30.054 38.3523 27.625 39.4261 25.6222C40.5 23.6193 41.9574 22.0937 43.7983 21.0455C45.6392 19.9886 47.7102 19.4602 50.0114 19.4602C51.5284 19.4602 52.9347 19.6733 54.2301 20.0994C55.5341 20.5256 56.6889 21.1477 57.6946 21.9659C58.7003 22.7756 59.5185 23.7685 60.1491 24.9446C60.7884 26.1207 61.1974 27.4673 61.3764 28.9844ZM74.1158 46.3835C72.13 46.3835 70.4126 45.9616 68.9638 45.1179C67.5234 44.2656 66.4112 43.081 65.6271 41.5639C64.843 40.0384 64.451 38.2699 64.451 36.2585C64.451 34.2301 64.843 32.4574 65.6271 30.9403C66.4112 29.4148 67.5234 28.2301 68.9638 27.3864C70.4126 26.5341 72.13 26.108 74.1158 26.108C76.1016 26.108 77.8146 26.5341 79.255 27.3864C80.7038 28.2301 81.8203 29.4148 82.6044 30.9403C83.3885 32.4574 83.7805 34.2301 83.7805 36.2585C83.7805 38.2699 83.3885 40.0384 82.6044 41.5639C81.8203 43.081 80.7038 44.2656 79.255 45.1179C77.8146 45.9616 76.1016 46.3835 74.1158 46.3835ZM74.1413 42.1648C75.0447 42.1648 75.799 41.9091 76.4041 41.3977C77.0092 40.8778 77.4652 40.1705 77.772 39.2756C78.0874 38.3807 78.245 37.3622 78.245 36.2202C78.245 35.0781 78.0874 34.0597 77.772 33.1648C77.4652 32.2699 77.0092 31.5625 76.4041 31.0426C75.799 30.5227 75.0447 30.2628 74.1413 30.2628C73.2294 30.2628 72.4624 30.5227 71.8402 31.0426C71.2266 31.5625 70.7621 32.2699 70.4467 33.1648C70.1399 34.0597 69.9865 35.0781 69.9865 36.2202C69.9865 37.3622 70.1399 38.3807 70.4467 39.2756C70.7621 40.1705 71.2266 40.8778 71.8402 41.3977C72.4624 41.9091 73.2294 42.1648 74.1413 42.1648ZM92.7678 34.6477V46H87.3217V26.3636H92.5121V29.8281H92.7422C93.1768 28.6861 93.9055 27.7827 94.9283 27.1179C95.951 26.4446 97.1911 26.108 98.6484 26.108C100.012 26.108 101.201 26.4062 102.215 27.0028C103.229 27.5994 104.018 28.4517 104.58 29.5597C105.143 30.6591 105.424 31.9716 105.424 33.4972V46H99.978V34.4688C99.9865 33.267 99.6797 32.3295 99.0575 31.6562C98.4354 30.9744 97.5788 30.6335 96.4879 30.6335C95.755 30.6335 95.1072 30.7912 94.5447 31.1065C93.9908 31.4219 93.5561 31.8821 93.2408 32.4872C92.9339 33.0838 92.7763 33.804 92.7678 34.6477ZM120.161 26.3636V30.4545H108.336V26.3636H120.161ZM111.02 21.6591H116.466V39.9659C116.466 40.4687 116.543 40.8608 116.696 41.142C116.85 41.4148 117.063 41.6065 117.336 41.7173C117.617 41.8281 117.941 41.8835 118.307 41.8835C118.563 41.8835 118.819 41.8622 119.074 41.8196C119.33 41.7685 119.526 41.7301 119.662 41.7045L120.519 45.7571C120.246 45.8423 119.863 45.9403 119.368 46.0511C118.874 46.1705 118.273 46.2429 117.566 46.2685C116.253 46.3196 115.103 46.1449 114.114 45.7443C113.134 45.3437 112.371 44.7216 111.826 43.8778C111.28 43.0341 111.012 41.9687 111.02 40.6818V21.6591ZM129.308 46.3707C128.055 46.3707 126.939 46.1534 125.958 45.7188C124.978 45.2756 124.203 44.6236 123.632 43.7628C123.069 42.8935 122.788 41.8111 122.788 40.5156C122.788 39.4247 122.988 38.5085 123.389 37.767C123.789 37.0256 124.335 36.429 125.025 35.9773C125.716 35.5256 126.5 35.1847 127.377 34.9545C128.264 34.7244 129.193 34.5625 130.164 34.4688C131.306 34.3494 132.227 34.2386 132.926 34.1364C133.625 34.0256 134.132 33.8636 134.447 33.6506C134.762 33.4375 134.92 33.1222 134.92 32.7045V32.6278C134.92 31.8182 134.664 31.1918 134.153 30.7486C133.65 30.3054 132.934 30.0838 132.005 30.0838C131.025 30.0838 130.245 30.3011 129.666 30.7358C129.086 31.1619 128.703 31.6989 128.515 32.3466L123.478 31.9375C123.734 30.7443 124.237 29.7131 124.987 28.8438C125.737 27.9659 126.704 27.2926 127.889 26.8239C129.082 26.3466 130.463 26.108 132.031 26.108C133.122 26.108 134.166 26.2358 135.163 26.4915C136.169 26.7472 137.059 27.1435 137.835 27.6804C138.619 28.2173 139.237 28.9077 139.689 29.7514C140.14 30.5866 140.366 31.5881 140.366 32.7557V46H135.201V43.277H135.048C134.733 43.8906 134.311 44.4318 133.782 44.9006C133.254 45.3608 132.619 45.723 131.877 45.9872C131.136 46.2429 130.279 46.3707 129.308 46.3707ZM130.868 42.6122C131.669 42.6122 132.376 42.4545 132.99 42.1392C133.603 41.8153 134.085 41.3807 134.434 40.8352C134.784 40.2898 134.958 39.6719 134.958 38.9815V36.8977C134.788 37.0085 134.554 37.1108 134.255 37.2045C133.966 37.2898 133.637 37.3707 133.271 37.4474C132.904 37.5156 132.538 37.5795 132.172 37.6392C131.805 37.6903 131.473 37.7372 131.174 37.7798C130.535 37.8736 129.977 38.0227 129.5 38.2273C129.022 38.4318 128.652 38.7088 128.387 39.0582C128.123 39.3991 127.991 39.8253 127.991 40.3366C127.991 41.0781 128.26 41.6449 128.797 42.0369C129.342 42.4205 130.032 42.6122 130.868 42.6122ZM153.463 46.3835C151.452 46.3835 149.722 45.9574 148.273 45.1051C146.833 44.2443 145.725 43.0511 144.949 41.5256C144.182 40 143.799 38.2443 143.799 36.2585C143.799 34.2472 144.186 32.483 144.962 30.9659C145.746 29.4403 146.858 28.2514 148.299 27.3991C149.739 26.5384 151.452 26.108 153.438 26.108C155.151 26.108 156.651 26.419 157.938 27.0412C159.225 27.6634 160.243 28.5369 160.993 29.6619C161.743 30.7869 162.157 32.108 162.233 33.625H157.094C156.949 32.6449 156.566 31.8565 155.944 31.2599C155.33 30.6548 154.525 30.3523 153.527 30.3523C152.684 30.3523 151.946 30.5824 151.316 31.0426C150.694 31.4943 150.208 32.1548 149.858 33.0241C149.509 33.8935 149.334 34.946 149.334 36.1818C149.334 37.4347 149.505 38.5 149.846 39.3778C150.195 40.2557 150.685 40.9247 151.316 41.3849C151.946 41.8452 152.684 42.0753 153.527 42.0753C154.15 42.0753 154.708 41.9474 155.202 41.6918C155.705 41.4361 156.118 41.0653 156.442 40.5795C156.775 40.0852 156.992 39.4929 157.094 38.8026H162.233C162.148 40.3026 161.739 41.6236 161.006 42.7656C160.282 43.8991 159.28 44.7855 158.002 45.4247C156.723 46.0639 155.211 46.3835 153.463 46.3835ZM176.165 26.3636V30.4545H164.339V26.3636H176.165ZM167.024 21.6591H172.47V39.9659C172.47 40.4687 172.547 40.8608 172.7 41.142C172.854 41.4148 173.067 41.6065 173.339 41.7173C173.621 41.8281 173.945 41.8835 174.311 41.8835C174.567 41.8835 174.822 41.8622 175.078 41.8196C175.334 41.7685 175.53 41.7301 175.666 41.7045L176.523 45.7571C176.25 45.8423 175.866 45.9403 175.372 46.0511C174.878 46.1705 174.277 46.2429 173.57 46.2685C172.257 46.3196 171.107 46.1449 170.118 45.7443C169.138 45.3437 168.375 44.7216 167.83 43.8778C167.284 43.0341 167.016 41.9687 167.024 40.6818V21.6591Z" fill="#265F78"/>
</svg>
