<svg width="118" height="118" viewBox="0 0 118 118" fill="none" xmlns="http://www.w3.org/2000/svg">
<path d="M97.7925 15.9791H20.2075C17.5995 15.9791 15.0984 17.0151 13.2543 18.8592C11.4102 20.7034 10.3742 23.2045 10.3742 25.8125V70.3575C10.3742 71.6488 10.6285 72.9275 11.1227 74.1205C11.6169 75.3136 12.3412 76.3976 13.2543 77.3107C14.1674 78.2238 15.2514 78.9481 16.4445 79.4423C17.6375 79.9364 18.9162 80.1908 20.2075 80.1908H28.2708L39.6283 99.8575C39.9925 100.502 40.5212 101.038 41.1605 101.411C41.7997 101.784 42.5266 101.98 43.2667 101.98C44.0068 101.98 44.7336 101.784 45.3729 101.411C46.0121 101.038 46.5409 100.502 46.905 99.8575L58.3117 80.1908H97.645C100.253 80.1908 102.754 79.1548 104.598 77.3107C106.442 75.4666 107.478 72.9654 107.478 70.3575V25.8125C107.479 23.2299 106.463 20.7508 104.651 18.9109C102.838 17.071 100.375 16.0179 97.7925 15.9791Z" stroke="white" stroke-width="10" stroke-linecap="round" stroke-linejoin="round"/>
<path d="M24.6325 38.645H54.1325" stroke="#84B6C6" stroke-width="10" stroke-linecap="round" stroke-linejoin="round"/>
<path d="M24.6325 58.3116H88.5492" stroke="#84B6C6" stroke-width="10" stroke-linecap="round" stroke-linejoin="round"/>
</svg>
