<svg width="500" height="500" viewBox="0 0 163 215" fill="none" xmlns="http://www.w3.org/2000/svg">
<path fill-rule="evenodd" clip-rule="evenodd" d="M143.012 114.275L149.508 110.615C151.858 109.291 154.014 107.095 155.594 104.627C157.149 102.197 158.118 99.5551 158.129 97.2951L158.292 49.8051C158.296 48.9411 158.152 48.2271 157.889 47.6691C157.673 47.2151 157.365 46.8741 156.989 46.6561C156.944 46.6311 156.899 46.6011 156.857 46.5731L84.6532 4.90012C84.5592 4.86012 84.4682 4.80812 84.3832 4.75312C83.9032 4.52612 83.2882 4.44512 82.5632 4.52712C81.6592 4.62712 80.6172 4.98712 79.4862 5.62712L72.7822 9.40012V73.7401L143.012 114.273V114.275ZM151.702 114.535L144.099 118.815H144.097C143.429 119.189 142.587 119.212 141.877 118.799L69.5492 77.0541C68.7992 76.6891 68.2832 75.9221 68.2832 75.0311V8.27012H68.2902C68.2902 7.88612 68.3872 7.49812 68.5902 7.14312L68.6952 6.96312C68.8912 6.59112 69.1932 6.26812 69.5872 6.04712L77.2902 1.70912C78.9502 0.771121 80.5702 0.233121 82.0702 0.0651205C83.7372 -0.124879 85.2622 0.145121 86.5532 0.830121C86.6062 0.855121 86.6572 0.884121 86.7072 0.913121L86.8352 0.985121L86.8322 0.990121L159.05 42.6701C159.157 42.7201 159.26 42.7771 159.36 42.8461L159.41 42.8801C160.494 43.5501 161.36 44.5171 161.947 45.7581C162.484 46.8931 162.779 48.2581 162.771 49.8211L162.613 97.3151C162.597 100.442 161.358 103.931 159.373 107.035C157.413 110.1 154.698 112.848 151.705 114.535H151.702Z" fill="white"/>
<path fill-rule="evenodd" clip-rule="evenodd" d="M87.6699 55.5021L87.6979 49.1961L87.7019 48.6931L88.1249 48.9601L142.147 70.1871L157.725 44.8131L85.6169 3.19314H85.6149L85.4919 3.12314C84.6399 2.65114 83.5849 2.46714 82.3919 2.60014C81.2269 2.73014 79.9319 3.17014 78.5699 3.94014L70.9339 8.23814L70.8579 8.36814V74.5781L78.0439 70.5301C80.6759 69.0471 83.0779 66.6101 84.8239 63.8801C86.5679 61.1551 87.6559 58.1401 87.6689 55.5021H87.6699ZM88.2549 49.6991L88.2279 55.5031C88.2149 58.2501 87.0939 61.3681 85.2979 64.1791C83.5029 66.9841 81.0319 69.4891 78.3179 71.0191L70.7149 75.3001L70.2969 75.5361V8.29414L70.3369 8.15414L70.4869 7.89214L70.5929 7.78714L78.2969 3.45014C79.7269 2.64314 81.0929 2.18414 82.3329 2.04514C83.4559 1.91714 84.4779 2.05514 85.3499 2.43014V2.39214L85.7699 2.63514L85.8969 2.70914L158.257 44.4691L158.505 44.6151L142.477 70.7191L142.329 70.9591L142.089 70.8121L88.2559 49.7001L88.2549 49.6991Z" fill="white"/>
<path fill-rule="evenodd" clip-rule="evenodd" d="M4.90234 115.153V163.295C4.90234 164.631 5.11034 165.747 5.48034 166.611C5.79034 167.334 6.20334 167.854 6.68034 168.137C6.73434 168.167 6.78534 168.197 6.83334 168.233L79.3333 209.987C79.4563 210.043 79.5733 210.107 79.6803 210.183C80.0343 210.37 80.4503 210.458 80.9123 210.43C81.5083 210.39 82.1823 210.168 82.9143 209.742L133.414 180.429C135.359 179.295 137.182 177.134 138.534 174.567C139.899 171.977 140.751 169.022 140.751 166.315V118.15L70.2323 77.446L4.90234 115.152V115.153ZM0.402344 163.295V113.86H0.408344C0.408344 113.088 0.808343 112.336 1.52834 111.92L69.0883 72.927C69.7623 72.529 70.6283 72.495 71.3533 72.917L143.983 114.837C144.733 115.2 145.249 115.969 145.249 116.859V166.316C145.249 169.756 144.196 173.451 142.506 176.658C140.78 179.93 138.352 182.742 135.663 184.31L85.1633 213.623C83.8113 214.41 82.4673 214.826 81.1933 214.905C79.7433 214.998 78.4033 214.66 77.2473 213.952V213.95L4.64734 172.137C4.51734 172.077 4.39234 172.004 4.27734 171.923C3.02434 171.141 2.02334 169.937 1.35134 168.381C0.743343 166.968 0.403343 165.251 0.403343 163.291L0.402344 163.295Z" fill="white"/>
<path fill-rule="evenodd" clip-rule="evenodd" d="M3.03942 114.072V163.232C3.03942 164.846 3.30642 166.222 3.78142 167.327C4.26442 168.451 4.96542 169.287 5.82342 169.787L5.83342 169.792V169.795L5.84342 169.799H5.84842V169.802L78.8504 211.962L79.5374 208.608L79.6474 208.544L106.989 190.246C109.266 188.946 111.345 186.516 112.856 183.649C114.369 180.779 115.309 177.475 115.309 174.436V133.502L75.9594 155.64L75.8214 155.72L75.6814 155.64L3.03742 114.072H3.03942ZM2.58942 163.68L2.61242 163.957L2.48242 163.233C2.48242 164.923 2.76042 166.377 3.26542 167.547L3.06842 166.465L3.27342 167.285L3.65942 168.02L3.26742 167.548C3.71042 168.59 4.33442 169.426 5.09142 169.983C5.23442 170.088 5.38442 170.183 5.53642 170.27L5.16442 169.824L5.21442 169.837L5.53642 170.27H5.54042L5.55542 170.28L6.21742 170.66L78.9074 212.64L79.2424 212.835L79.3224 212.455L80.0374 208.971L107.269 190.738C109.644 189.381 111.799 186.868 113.356 183.913C114.909 180.966 115.874 177.571 115.874 174.439V132.534L115.456 132.778L75.8264 155.078L2.90042 113.348L2.48242 113.103V163.233L2.59042 163.681L2.58942 163.68Z" fill="white"/>
<path fill-rule="evenodd" clip-rule="evenodd" d="M76.193 155.742V204.749C76.193 206.696 76.583 208.304 77.263 209.492C77.698 210.254 78.249 210.844 78.893 211.239C79.53 211.635 80.263 211.839 81.065 211.839C82.037 211.839 83.111 211.536 84.238 210.892L134.4 182.125C136.674 180.825 138.753 178.395 140.265 175.525C141.778 172.655 142.72 169.351 142.72 166.313V117.345L76.204 155.735L76.194 155.741L76.193 155.742ZM75.629 204.748V154.918L76.051 155.161L76.061 155.171L142.859 116.617L143.279 116.373V166.315C143.279 169.445 142.313 172.839 140.759 175.785C139.199 178.745 137.044 181.259 134.675 182.613L84.511 211.38C83.297 212.074 82.128 212.403 81.063 212.403C80.158 212.403 79.327 212.166 78.598 211.715C77.87 211.268 77.252 210.613 76.772 209.771C76.047 208.499 75.627 206.798 75.627 204.749L75.629 204.748Z" fill="white"/>
<path fill-rule="evenodd" clip-rule="evenodd" d="M70.2887 74.5703L143.141 116.616C143.276 116.693 143.321 116.866 143.243 117C143.217 117.043 143.18 117.078 143.14 117.1L76.1547 155.747C76.0567 155.803 75.9427 155.794 75.8577 155.737L2.78267 113.76C2.64967 113.684 2.60267 113.512 2.67967 113.38C2.70667 113.334 2.74167 113.3 2.78367 113.276L70.0087 74.5703C70.0987 74.5163 70.2037 74.5203 70.2887 74.5703ZM142.437 116.857L70.1487 75.1353L3.48267 113.517L76.0127 155.181L142.437 116.858V116.857Z" fill="white"/>
<path fill-rule="evenodd" clip-rule="evenodd" d="M160.093 97.3019L160.253 49.8119C160.259 48.4889 159.993 47.3869 159.508 46.5269C159.113 45.8269 158.571 45.2849 157.91 44.9219C157.25 44.5519 156.462 44.3619 155.59 44.3569C154.236 44.3509 152.667 44.7969 150.992 45.7369L143.086 50.1869L143.01 50.3219L143.012 116.529L150.47 112.329C153.1 110.847 155.503 108.409 157.248 105.679C158.992 102.953 160.08 99.9389 160.093 97.3009V97.3019ZM160.813 49.8119L160.653 97.3039C160.64 100.052 159.518 103.171 157.721 105.98C155.928 108.786 153.457 111.29 150.744 112.82L142.87 117.254L142.453 117.489V50.2419L142.49 50.1019L142.643 49.8419L142.748 49.7379L150.721 45.2479C152.479 44.2579 154.141 43.7919 155.593 43.7979C156.563 43.8029 157.439 44.0179 158.187 44.4319C158.935 44.8459 159.551 45.4589 159.999 46.2519C160.529 47.1919 160.819 48.3869 160.814 49.8119H160.813Z" fill="white"/>
<path fill-rule="evenodd" clip-rule="evenodd" d="M139.369 114.764L138.811 114.441V52.0773L73.7006 14.3603V76.8803L73.1406 76.5563V13.8763C73.1406 13.7163 73.2666 13.5933 73.4206 13.5933C73.4786 13.5933 73.5326 13.6113 73.5786 13.6413L139.231 51.6713C139.321 51.7243 139.371 51.8173 139.371 51.9143V114.764" fill="white"/>
<path fill-rule="evenodd" clip-rule="evenodd" d="M70.1895 74.9962V8.23219C70.1895 8.07519 70.3155 7.9502 70.4695 7.9502C70.5275 7.9502 70.5824 7.96819 70.6274 8.00019L142.87 49.8522C142.96 49.9042 143.01 49.9972 143.01 50.0942H143.012V116.859C143.012 117.013 142.884 117.139 142.732 117.139C142.672 117.139 142.617 117.122 142.576 117.089L70.3295 75.2402C70.2395 75.1872 70.1895 75.0902 70.1895 74.9962ZM70.7495 8.71619V74.8362L142.449 116.373V50.2572L70.7495 8.71719V8.71619Z" fill="white"/>
<path fill-rule="evenodd" clip-rule="evenodd" d="M120.182 61.9202L52.1216 22.3802C51.6936 22.1322 51.3166 22.0022 51.0016 21.9762C50.7936 21.9592 50.6186 21.9902 50.4886 22.0662L50.4386 22.0942L46.6036 24.4562C46.5206 24.5202 46.4296 24.5812 46.3336 24.6342C46.2316 24.6942 46.1266 24.7402 46.0176 24.7822H46.0196C45.7956 24.8652 45.5856 25.0962 45.4066 25.4542C45.1366 25.9942 44.9816 26.7472 44.9816 27.6922V79.6572L103.522 118.2L124.992 105.85V71.3652C124.992 69.5472 124.422 67.5452 123.504 65.7852C122.611 64.0712 121.431 62.6452 120.18 61.9192L120.182 61.9202ZM54.3736 18.4962L122.434 58.0362C124.45 59.2062 126.244 61.2932 127.502 63.7112C128.737 66.0762 129.502 68.8192 129.502 71.3662V107.142H129.498C129.498 107.916 129.093 108.666 128.375 109.082L104.667 122.722C103.987 123.122 103.122 123.152 102.393 122.732L41.7426 82.9702C40.9926 82.6052 40.4746 81.8382 40.4746 80.9482V27.6932C40.4746 26.0352 40.8006 24.5992 41.3746 23.4512C42.0106 22.1782 42.9546 21.2472 44.1196 20.7212L48.0796 18.2842C48.1296 18.2472 48.1796 18.2162 48.2346 18.1842C49.1666 17.6462 50.2226 17.4042 51.3546 17.4962C52.3276 17.5742 53.3476 17.9022 54.3746 18.4962H54.3736Z" fill="white"/>
<path fill-rule="evenodd" clip-rule="evenodd" d="M121.512 60.22L53.1347 20.68C52.4447 20.28 51.7807 20.064 51.1747 20.015C50.5587 19.967 49.9967 20.089 49.5147 20.37L45.5947 22.77L47.1827 25.666L47.2187 25.801V85.041C47.2187 85.321 47.2307 85.601 47.2487 85.879C47.2687 86.122 47.2967 86.369 47.3287 86.612L103.869 122.43L127.339 109.015V71.365C127.339 69.227 126.679 66.902 125.619 64.875C124.559 62.857 123.106 61.141 121.511 60.221L121.512 60.22ZM53.4197 20.196L121.795 59.736C123.485 60.712 125.015 62.51 126.12 64.618C127.222 66.72 127.907 69.138 127.907 71.366V109.336L127.764 109.416L104.01 122.996L103.87 123.074L103.73 122.994L46.9297 87.029L46.8097 86.959L46.7897 86.825C46.7467 86.525 46.7127 86.218 46.6897 85.917C46.6647 85.619 46.6527 85.324 46.6527 85.039V25.869L44.9727 22.807L44.8457 22.577L45.0737 22.435L49.2237 19.889L49.2317 19.886C49.8167 19.55 50.4897 19.401 51.2197 19.456C51.9097 19.513 52.6497 19.753 53.4197 20.196Z" fill="white"/>
<path fill-rule="evenodd" clip-rule="evenodd" d="M116.677 62.9899L48.5353 23.4499C47.7433 22.9919 46.9953 22.7749 46.3213 22.7749C45.7873 22.7749 45.2983 22.9109 44.8713 23.1699C44.4413 23.4329 44.0713 23.8239 43.7743 24.3279C43.2893 25.1599 43.0103 26.2979 43.0103 27.6949V84.7149L107.666 120.143L122.486 111.648V74.1349C122.486 71.9989 121.828 69.6719 120.768 67.6449C119.714 65.6249 118.266 63.9119 116.678 62.9899H116.677ZM48.8173 22.9649L116.957 62.5049C118.642 63.4829 120.167 65.2799 121.267 67.3849C122.367 69.4879 123.049 71.9049 123.049 74.1329V111.968L122.906 112.048L107.803 120.708L107.665 120.788L107.523 120.708L42.5853 85.1179L42.4453 85.0359V27.6929C42.4453 26.1979 42.7523 24.9629 43.2883 24.0469C43.6303 23.4609 44.0663 23.0019 44.5783 22.6909C45.0933 22.3779 45.6813 22.2109 46.3183 22.2109C47.0903 22.2139 47.9343 22.4549 48.8163 22.9659L48.8173 22.9649Z" fill="white"/>
<path fill-rule="evenodd" clip-rule="evenodd" d="M50.4658 30.5472C52.0778 31.4832 53.3828 33.8592 53.3828 35.8532C53.3828 37.8472 52.0778 38.7032 50.4658 37.7702C48.8558 36.8342 47.5508 34.4582 47.5508 32.4632C47.5508 30.4672 48.8558 29.6112 50.4658 30.5472Z" fill="#ED4C6F"/>
<path fill-rule="evenodd" clip-rule="evenodd" d="M58.6064 35.3283C60.2184 36.2633 61.5264 38.6383 61.5264 40.6333C61.5264 42.6283 60.2184 43.4873 58.6064 42.5493C56.9964 41.6123 55.6914 39.2393 55.6914 37.2433C55.6914 35.2473 56.9954 34.3883 58.6064 35.3273" fill="#2EBCE3"/>
<path fill-rule="evenodd" clip-rule="evenodd" d="M42.5856 39.0503C42.4526 38.9753 42.4076 38.8043 42.4856 38.6703C42.5616 38.5363 42.7356 38.4903 42.8676 38.5683L122.628 84.9183C122.76 84.9953 122.805 85.1683 122.728 85.3013C122.648 85.4353 122.478 85.4813 122.345 85.4033L42.5846 39.0533" fill="white"/>
<path fill-rule="evenodd" clip-rule="evenodd" d="M123.139 85.2683C123.005 85.3453 122.833 85.2983 122.757 85.1683C122.679 85.0323 122.725 84.8613 122.857 84.7843L127.052 82.3643C127.186 82.2863 127.358 82.3343 127.432 82.4643C127.512 82.5983 127.465 82.7713 127.334 82.8473L123.14 85.2673" fill="white"/>
<path fill-rule="evenodd" clip-rule="evenodd" d="M66.7598 40.3762C68.3728 41.3102 69.6797 43.6882 69.6797 45.6822C69.6797 47.6772 68.3728 48.5342 66.7598 47.5972C65.1498 46.6612 63.8438 44.2852 63.8438 42.2912C63.8438 40.2972 65.1507 39.4392 66.7607 40.3772" fill="white"/>
<path fill-rule="evenodd" clip-rule="evenodd" d="M82.077 80.7662L33.617 52.4502C33.193 52.2002 32.817 52.0722 32.501 52.0462C32.294 52.0282 32.121 52.0612 31.991 52.1362L31.944 52.1632L28.168 54.4932C28.081 54.5652 27.99 54.6292 27.893 54.6872C27.756 54.7672 27.615 54.8322 27.473 54.8802C27.273 54.9802 27.086 55.2002 26.923 55.5252C26.653 56.0632 26.503 56.8182 26.503 57.7632V111.22L74.827 115.54L86.883 108.58V90.2132C86.883 88.3952 86.313 86.3932 85.395 84.6302C84.505 82.9202 83.325 81.4942 82.078 80.7662H82.077ZM35.867 48.5662L84.325 76.8862C86.338 78.0562 88.125 80.1422 89.382 82.5562C90.614 84.9262 91.379 87.6682 91.379 90.2132V109.873H91.373C91.37 110.646 90.969 111.398 90.253 111.813L75.965 120.059C75.289 120.459 74.425 120.489 73.695 120.069L23.265 114.532C22.517 114.168 22 113.4 22 112.51V57.7602C22 56.1022 22.325 54.6672 22.897 53.5182C23.533 52.2452 24.473 51.3142 25.635 50.7902L29.588 48.3502C29.636 48.3152 29.688 48.2832 29.738 48.2502C30.668 47.7142 31.723 47.4742 32.853 47.5622C33.823 47.6422 34.84 47.9702 35.866 48.5652L35.867 48.5662Z" fill="white"/>
<path fill-rule="evenodd" clip-rule="evenodd" d="M83.2972 79.2052L34.5992 50.7502C33.9122 50.3522 33.2552 50.1352 32.6532 50.0852C32.0432 50.0372 31.4852 50.1612 31.0032 50.4392L27.1132 52.8412L28.6882 55.7362L28.7232 55.8702V93.1602L75.0602 119.977L89.0842 111.883V90.3502C89.0842 88.2142 88.4302 85.8882 87.3742 83.8602C86.3242 81.8442 84.8812 80.1272 83.2962 79.2052H83.2972ZM34.8812 50.2652L83.5792 78.7202C85.2572 79.6962 86.7772 81.4952 87.8752 83.6022C88.9672 85.7042 89.6482 88.1222 89.6482 90.3502V112.204L89.5062 112.284L75.2002 120.544L75.0602 120.621L74.9202 120.544L28.3002 93.5642L28.1602 93.4842V93.3222L28.1622 55.9422L26.4952 52.8802L26.3672 52.6452L26.5932 52.5052L30.7172 49.9612L30.7232 49.9552C31.3032 49.6192 31.9692 49.4692 32.6972 49.5282C33.3792 49.5822 34.1172 49.8222 34.8792 50.2682L34.8812 50.2652Z" fill="black"/>
<path fill-rule="evenodd" clip-rule="evenodd" d="M78.8158 82.0202L30.0357 53.5202C29.2497 53.0632 28.5037 52.8472 27.8307 52.8472C27.2987 52.8472 26.8137 52.9822 26.3887 53.2422C25.9587 53.5022 25.5887 53.8942 25.2957 54.3992C24.8117 55.2312 24.5327 56.3692 24.5327 57.7622V118.022L75.1427 127.296L84.6027 121.836V93.1642C84.6027 91.0272 83.9497 88.7022 82.8927 86.6742C81.8427 84.6562 80.3988 82.9442 78.8167 82.0202H78.8158ZM30.3197 53.0382L79.0967 81.5382C80.7747 82.5142 82.2967 84.3122 83.3917 86.4202C84.4857 88.5202 85.1637 90.9402 85.1637 93.1672V122.161L85.0238 122.243L75.2817 127.867L75.1417 127.947L75.0017 127.867L24.1087 118.427L23.9688 118.345V57.7622C23.9688 56.2692 24.2757 55.0322 24.8087 54.1172C25.1517 53.5302 25.5857 53.0732 26.0967 52.7612C26.6097 52.4492 27.1968 52.2832 27.8298 52.2832C28.5998 52.2832 29.4417 52.5262 30.3197 53.0382Z" fill="black"/>
<path fill-rule="evenodd" clip-rule="evenodd" d="M31.7168 60.1922C33.3288 61.1272 34.6328 63.5042 34.6328 65.4992C34.6328 67.4922 33.3288 68.3492 31.7168 67.4122C30.1068 66.4782 28.7988 64.1002 28.7988 62.1072C28.7988 60.1112 30.1058 59.2552 31.7158 60.1912" fill="#ED4C6F"/>
<path fill-rule="evenodd" clip-rule="evenodd" d="M39.8575 64.9719C41.4675 65.9079 42.7735 68.2839 42.7735 70.2779C42.7735 72.2739 41.4685 73.1319 39.8575 72.1949C38.2475 71.2599 36.9395 68.8849 36.9395 66.8879C36.9395 64.8929 38.2465 64.0379 39.8575 64.9719Z" fill="#2EBCE3"/>
<path fill-rule="evenodd" clip-rule="evenodd" d="M24.1101 69.12C23.9761 69.045 23.9301 68.872 24.0101 68.74C24.0851 68.606 24.2581 68.56 24.3901 68.64L84.8661 103.858C85.0001 103.935 85.0441 104.108 84.9661 104.241C84.8901 104.377 84.7161 104.421 84.5841 104.344L24.1101 69.12Z" fill="black"/>
<path fill-rule="evenodd" clip-rule="evenodd" d="M85.1701 104.223C85.0341 104.301 84.8621 104.255 84.7851 104.121C84.7081 103.987 84.7551 103.816 84.8881 103.739L89.0811 101.319C89.2161 101.242 89.3871 101.286 89.4651 101.419C89.5411 101.554 89.4971 101.724 89.3631 101.803L85.1701 104.223Z" fill="black"/>
<path fill-rule="evenodd" clip-rule="evenodd" d="M48.0088 70.0202C49.6188 70.9552 50.9268 73.3332 50.9268 75.3272C50.9268 77.3202 49.6198 78.1772 48.0088 77.2422C46.3988 76.3072 45.0918 73.9302 45.0918 71.9362C45.0918 69.9412 46.3978 69.0862 48.0088 70.0192" fill="white"/>
<path fill-rule="evenodd" clip-rule="evenodd" d="M41.9995 155.118L33.1375 149.968L30.5845 151.778L32.5595 156.071L35.8035 166.075L38.2055 169.058C39.8485 168.073 40.7895 167.44 41.3095 166.73C41.8395 166.007 41.9615 165.134 41.9995 163.608V155.118ZM33.3295 149.106L42.6095 154.496C42.7495 154.566 42.8445 154.709 42.8445 154.876V163.608H42.8415V163.618C42.7965 165.331 42.6485 166.326 41.9895 167.228C41.3525 168.098 40.2665 168.808 38.3425 169.958C38.1625 170.078 37.9175 170.041 37.7825 169.868L35.1405 166.592L35.1265 166.572L31.8535 156.528C31.8385 156.505 31.8255 156.481 31.8135 156.458L29.6835 151.828C29.5885 151.646 29.6415 151.416 29.8135 151.293L32.8735 149.126C33.0035 149.036 33.1805 149.021 33.3295 149.106Z" fill="black"/>
<path fill-rule="evenodd" clip-rule="evenodd" d="M38.9418 157.022L30.4778 152.352V161.502C30.4778 165.016 32.4178 167.642 34.4848 168.835C35.0848 169.181 35.6948 169.405 36.2648 169.489C36.8048 169.569 37.3078 169.519 37.7208 169.333C38.4538 168.999 38.9428 168.195 38.9428 166.836V157.021L38.9418 157.022ZM30.2588 151.268L39.5408 156.392C39.6848 156.459 39.7838 156.606 39.7838 156.774V166.837C39.7838 168.577 39.0958 169.633 38.0658 170.101C37.5028 170.358 36.8408 170.426 36.1428 170.323C35.4698 170.223 34.7568 169.965 34.0628 169.561C31.7828 168.244 29.6348 165.355 29.6348 161.501V151.636H29.6368C29.6368 151.566 29.6548 151.498 29.6888 151.433C29.7988 151.233 30.0548 151.158 30.2588 151.269V151.268Z" fill="black"/>
<path fill-rule="evenodd" clip-rule="evenodd" d="M134.099 105.942H82.5312V118.497L90.4362 133.132L102.386 135.58L134.099 117.277V105.942Z" fill="#C71E4E"/>
<path fill-rule="evenodd" clip-rule="evenodd" d="M71.6764 106.267H20.1094V118.821L51.4094 136.614L67.3994 120.07L71.6764 117.6V106.267Z" fill="#0086B3"/>
<path fill-rule="evenodd" clip-rule="evenodd" d="M102.917 124.14H51.3496V136.72L75.8636 150.594L98.6416 137.968L102.917 135.5V124.14Z" fill="#D1822B"/>
<path fill-rule="evenodd" clip-rule="evenodd" d="M113.154 92.2261L132.329 103.136C134.986 104.648 134.631 107.324 131.539 109.083L113.939 119.096C110.849 120.856 106.145 121.056 103.489 119.546L84.3116 108.634C81.6516 107.122 82.0076 104.447 85.0996 102.687L102.7 92.6731C105.79 90.9151 110.495 90.7131 113.154 92.2261Z" fill="#ED4C6F"/>
<path fill-rule="evenodd" clip-rule="evenodd" d="M50.7303 92.55L69.9072 103.46C72.5643 104.972 72.2092 107.65 69.1172 109.407L51.5173 119.42C48.4272 121.18 43.7243 121.382 41.0673 119.87L21.8903 108.956C19.2333 107.446 19.5873 104.769 22.6773 103.011L40.2773 92.996C43.3693 91.238 48.0723 91.036 50.7303 92.548" fill="#3EC9F0"/>
<path fill-rule="evenodd" clip-rule="evenodd" d="M81.9592 110.636L101.134 121.546C103.791 123.059 103.437 125.736 100.346 127.494L82.7462 137.507C79.6542 139.267 74.9511 139.467 72.2931 137.957L53.1171 127.047C50.4601 125.533 50.8131 122.857 53.9041 121.099L71.5041 111.084C74.5961 109.324 79.2992 109.124 81.9582 110.634" fill="#F6BE25"/>
<path fill-rule="evenodd" clip-rule="evenodd" d="M134.099 116.12L134.953 116.616C135.088 116.693 135.133 116.866 135.055 117C135.029 117.043 134.993 117.078 134.952 117.1L76.0482 151.1C75.9482 151.157 75.8332 151.148 75.7502 151.09L10.6442 114.097C10.5102 114.02 10.4642 113.85 10.5412 113.717C10.5652 113.673 10.6012 113.637 10.6442 113.613L20.1082 108.221V108.861L11.3422 113.856L75.9072 150.536L134.247 116.858L134.097 116.771V116.121" fill="black"/>
<path fill-rule="evenodd" clip-rule="evenodd" d="M114.565 150.683C115.495 150.451 116.373 150.409 117.182 150.543L118.614 147.909C119.117 146.981 119.942 146.506 120.444 146.851L122.277 148.107C122.78 148.452 122.78 149.494 122.277 150.42L120.845 153.056C121.32 153.802 121.689 154.698 121.931 155.733L123.954 154.566C124.664 154.156 125.249 154.556 125.249 155.454V158.724C125.249 159.624 124.665 160.698 123.954 161.108L121.931 162.275C121.689 163.59 121.321 164.912 120.845 166.208L122.277 167.188C122.78 167.534 122.78 168.575 122.277 169.502L120.445 172.872C119.942 173.799 119.117 174.274 118.615 173.928L117.182 172.948C116.372 174.014 115.495 174.988 114.565 175.828V178.383C114.565 179.283 113.983 180.355 113.27 180.767L110.68 182.261C109.97 182.673 109.387 182.273 109.387 181.374V178.819C108.457 179.051 107.577 179.093 106.769 178.959L105.336 181.593C104.832 182.52 104.008 182.995 103.506 182.65L101.674 181.393C101.17 181.047 101.17 180.008 101.674 179.08L103.106 176.447C102.63 175.7 102.261 174.803 102.019 173.767L99.9992 174.935C99.2852 175.347 98.7012 174.945 98.7012 174.047V170.777C98.7012 169.877 99.2852 168.805 99.9982 168.394L102.018 167.226C102.26 165.912 102.628 164.589 103.105 163.293L101.673 162.313C101.169 161.967 101.169 160.926 101.673 159.999L103.503 156.629C104.007 155.702 104.831 155.226 105.335 155.571L106.767 156.554C107.574 155.486 108.453 154.514 109.384 153.671V151.117C109.384 150.217 109.966 149.145 110.678 148.735L113.268 147.239C113.982 146.829 114.564 147.229 114.564 148.129V150.682L114.565 150.683ZM111.975 158.73C114.609 157.21 116.745 158.673 116.745 162C116.745 165.325 114.609 169.253 111.975 170.773C109.342 172.293 107.208 170.828 107.208 167.503C107.208 164.178 109.341 160.248 111.974 158.73H111.975Z" fill="#C8C8C8"/>
</svg>
