<svg width="213" height="67" viewBox="0 0 213 67" fill="none" xmlns="http://www.w3.org/2000/svg">
<rect width="213" height="67" rx="10" fill="black"/>
<path d="M70.3636 30.2344C70.2145 29.7159 70.005 29.2578 69.7351 28.8601C69.4652 28.4553 69.1349 28.1143 68.7443 27.8374C68.3608 27.5533 67.9205 27.3366 67.4233 27.1875C66.9332 27.0384 66.3899 26.9638 65.7933 26.9638C64.6783 26.9638 63.6982 27.2408 62.853 27.7947C62.0149 28.3487 61.3615 29.1548 60.8928 30.2131C60.424 31.2642 60.1896 32.5497 60.1896 34.0696C60.1896 35.5895 60.4205 36.8821 60.8821 37.9474C61.3438 39.0128 61.9972 39.826 62.8423 40.3871C63.6875 40.9411 64.6854 41.218 65.8359 41.218C66.88 41.218 67.7713 41.0334 68.5099 40.6641C69.2557 40.2876 69.8239 39.7585 70.2145 39.0767C70.6122 38.3949 70.8111 37.5888 70.8111 36.6584L71.7486 36.7969H66.1236V33.3239H75.2536V36.0724C75.2536 37.9901 74.8487 39.6378 74.0391 41.0156C73.2294 42.3864 72.1143 43.4446 70.6939 44.1903C69.2734 44.929 67.647 45.2983 65.8146 45.2983C63.7692 45.2983 61.9723 44.8473 60.424 43.9453C58.8757 43.0362 57.6683 41.7472 56.8018 40.0781C55.9425 38.402 55.5128 36.4134 55.5128 34.1122C55.5128 32.3437 55.7685 30.767 56.2798 29.3821C56.7983 27.9901 57.5227 26.8111 58.4531 25.8452C59.3835 24.8793 60.4666 24.1442 61.7024 23.6399C62.9382 23.1357 64.277 22.8835 65.7188 22.8835C66.9545 22.8835 68.1051 23.0646 69.1705 23.4268C70.2358 23.782 71.1804 24.2862 72.0043 24.9396C72.8352 25.593 73.5135 26.3707 74.0391 27.2727C74.5646 28.1676 74.902 29.1548 75.0511 30.2344H70.3636ZM79.6587 45V28.6364H84.1971V45H79.6587ZM81.9386 26.527C81.2638 26.527 80.685 26.3033 80.2021 25.8558C79.7262 25.4013 79.4883 24.858 79.4883 24.2259C79.4883 23.6009 79.7262 23.0646 80.2021 22.6172C80.685 22.1626 81.2638 21.9354 81.9386 21.9354C82.6133 21.9354 83.1886 22.1626 83.6644 22.6172C84.1474 23.0646 84.3888 23.6009 84.3888 24.2259C84.3888 24.858 84.1474 25.4013 83.6644 25.8558C83.1886 26.3033 82.6133 26.527 81.9386 26.527ZM96.5364 28.6364V32.0455H86.682V28.6364H96.5364ZM88.9192 24.7159H93.4576V39.9716C93.4576 40.3906 93.5215 40.7173 93.6493 40.9517C93.7772 41.179 93.9547 41.3388 94.182 41.4311C94.4164 41.5234 94.6863 41.5696 94.9917 41.5696C95.2047 41.5696 95.4178 41.5518 95.6309 41.5163C95.8439 41.4737 96.0073 41.4418 96.1209 41.4205L96.8347 44.7976C96.6074 44.8686 96.2878 44.9503 95.8759 45.0426C95.464 45.142 94.9632 45.2024 94.3738 45.2237C93.28 45.2663 92.3212 45.1207 91.4973 44.7869C90.6806 44.4531 90.0449 43.9347 89.5904 43.2315C89.1358 42.5284 88.9121 41.6406 88.9192 40.5682V24.7159ZM99.9295 45V23.1818H104.542V32.1839H113.907V23.1818H118.509V45H113.907V35.9872H104.542V45H99.9295ZM132.721 38.0327V28.6364H137.259V45H132.902V42.0277H132.731C132.362 42.9865 131.748 43.7571 130.888 44.3395C130.036 44.9219 128.996 45.2131 127.767 45.2131C126.673 45.2131 125.711 44.9645 124.88 44.4673C124.049 43.9702 123.399 43.2635 122.93 42.3473C122.469 41.4311 122.234 40.3338 122.227 39.0554V28.6364H126.765V38.2457C126.773 39.2116 127.032 39.9751 127.543 40.5362C128.055 41.0973 128.74 41.3778 129.599 41.3778C130.146 41.3778 130.657 41.2536 131.133 41.005C131.609 40.7493 131.993 40.3729 132.284 39.8757C132.582 39.3786 132.728 38.7642 132.721 38.0327ZM140.974 45V23.1818H145.513V31.3849H145.651C145.85 30.9446 146.138 30.4972 146.514 30.0426C146.898 29.581 147.395 29.1974 148.006 28.892C148.624 28.5795 149.391 28.4233 150.307 28.4233C151.5 28.4233 152.601 28.7358 153.609 29.3608C154.618 29.9787 155.424 30.9126 156.028 32.1626C156.631 33.4055 156.933 34.9645 156.933 36.8395C156.933 38.6648 156.638 40.206 156.049 41.4631C155.467 42.7131 154.671 43.6612 153.663 44.3075C152.661 44.9467 151.539 45.2663 150.296 45.2663C149.415 45.2663 148.666 45.1207 148.048 44.8295C147.438 44.5384 146.937 44.1726 146.546 43.7322C146.156 43.2848 145.857 42.8338 145.651 42.3793H145.449V45H140.974ZM145.417 36.8182C145.417 37.7912 145.552 38.6399 145.822 39.3643C146.092 40.0888 146.482 40.6534 146.994 41.0582C147.505 41.456 148.126 41.6548 148.858 41.6548C149.597 41.6548 150.222 41.4524 150.733 41.0476C151.244 40.6357 151.631 40.0675 151.894 39.343C152.164 38.6115 152.299 37.7699 152.299 36.8182C152.299 35.8736 152.168 35.0426 151.905 34.3253C151.642 33.608 151.255 33.0469 150.744 32.642C150.232 32.2372 149.604 32.0348 148.858 32.0348C148.119 32.0348 147.494 32.2301 146.983 32.6207C146.479 33.0114 146.092 33.5653 145.822 34.2827C145.552 35 145.417 35.8452 145.417 36.8182Z" fill="white"/>
</svg>
