<svg width="74" height="74" viewBox="0 0 74 74" fill="none" xmlns="http://www.w3.org/2000/svg">
<g clip-path="url(#clip0_1_727)">
<path d="M37 0.915765C16.5598 0.915765 0 17.4895 0 37.9158C0 54.2721 10.6005 68.1355 25.2918 73.0265C27.1488 73.3756 27.8194 72.2309 27.8194 71.2412C27.8194 70.3624 27.7986 68.0384 27.7847 64.9535C17.4871 67.1828 15.318 59.9793 15.318 59.9793C13.6322 55.7151 11.1994 54.5704 11.1994 54.5704C7.85094 52.2833 11.4654 52.3319 11.4654 52.3319C15.1746 52.584 17.1264 56.136 17.1264 56.136C20.4263 61.797 25.7844 60.1597 27.9049 59.207C28.2287 56.8228 29.193 55.1832 30.2429 54.2698C22.0289 53.3425 13.3917 50.1628 13.3917 35.9848C13.3917 31.9356 14.8254 28.638 17.1957 26.048C16.7864 25.1207 15.5331 21.3513 17.5218 16.2546C17.5218 16.2546 20.6182 15.2671 27.6968 20.0494C30.6591 19.2285 33.8041 18.8191 36.9468 18.7983C40.0918 18.8191 43.2345 19.2308 46.1968 20.0494C53.2337 15.2671 56.3279 16.2546 56.3279 16.2546C58.3143 21.3513 57.0609 25.1184 56.7002 26.048C59.0474 28.638 60.4811 31.938 60.4811 35.9848C60.4811 50.1951 51.8324 53.3286 43.6091 54.2328C44.8949 55.3405 46.0997 57.6183 46.0997 61.0755C46.0997 66.0242 46.0534 70.0109 46.0534 71.2158C46.0534 72.1778 46.7009 73.334 48.6064 72.9617C63.4064 68.1216 73.9954 54.2466 73.9954 37.9135C73.9954 17.4871 57.4356 0.913452 36.9954 0.913452L37 0.915765Z" fill="white"/>
</g>
<defs>
<clipPath id="clip0_1_727">
<rect width="74" height="74" fill="white"/>
</clipPath>
</defs>
</svg>
