<svg width="118" height="106" viewBox="0 0 118 106" fill="none" xmlns="http://www.w3.org/2000/svg">
<path d="M118 52.554C118 44.7371 108.211 37.329 93.2022 32.735C96.6657 17.4378 95.1264 5.26743 88.3437 1.37097C86.7803 0.456991 84.9523 0.0240518 82.956 0.0240518V5.38769C84.0624 5.38769 84.9523 5.60416 85.6979 6.01305C88.969 7.88912 90.3881 15.0326 89.2817 24.2205C89.0171 26.4814 88.5842 28.8626 88.055 31.2919C83.3408 30.1374 78.1936 29.2474 72.7819 28.6702C69.5349 24.2205 66.1675 20.1798 62.7762 16.6441C70.6172 9.3563 77.9772 5.36364 82.98 5.36364V0C76.3657 0 67.7069 4.71423 58.9519 12.892C50.1969 4.76233 41.5381 0.0962091 34.9238 0.0962091V5.45984C39.9026 5.45984 47.2866 9.42846 55.1276 16.6682C51.7603 20.2038 48.393 24.2205 45.1941 28.6702C39.7583 29.2474 34.6111 30.1374 29.8969 31.3159C29.3437 28.9107 28.9348 26.5777 28.6461 24.3408C27.5157 15.1529 28.9107 8.00938 32.1578 6.10925C32.8793 5.67631 33.8174 5.4839 34.9238 5.4839V0.120261C32.9034 0.120261 31.0754 0.5532 29.488 1.46718C22.7293 5.36364 21.214 17.51 24.7016 32.7591C9.74113 37.3771 0 44.7611 0 52.554C0 60.371 9.78924 67.779 24.7978 72.373C21.3343 87.6702 22.8736 99.8406 29.6563 103.737C31.2197 104.651 33.0477 105.084 35.0681 105.084C41.6824 105.084 50.3412 100.37 59.0962 92.192C67.8512 100.322 76.51 104.988 83.1243 104.988C85.1447 104.988 86.9727 104.555 88.5601 103.641C95.3188 99.7444 96.8341 87.598 93.3465 72.349C108.259 67.755 118 60.3469 118 52.554ZM86.6841 36.5112C85.7941 39.6139 84.6877 42.8129 83.437 46.0118C82.4509 44.0876 81.4166 42.1635 80.2862 40.2393C79.1798 38.3151 78.0012 36.4391 76.8227 34.6111C80.2381 35.1162 83.5332 35.7415 86.6841 36.5112ZM75.6682 62.1268C73.7921 65.3738 71.8679 68.4525 69.8716 71.3147C66.2878 71.6274 62.6559 71.7958 59 71.7958C55.3681 71.7958 51.7362 71.6274 48.1765 71.3388C46.1802 68.4766 44.232 65.4219 42.3559 62.1989C40.5279 59.0481 38.8683 55.8492 37.353 52.6262C38.8443 49.4032 40.5279 46.1802 42.3318 43.0294C44.2079 39.7823 46.1321 36.7036 48.1284 33.8414C51.7122 33.5287 55.3441 33.3604 59 33.3604C62.6319 33.3604 66.2638 33.5287 69.8235 33.8174C71.8198 36.6796 73.768 39.7342 75.6441 42.9572C77.4721 46.108 79.1317 49.307 80.647 52.53C79.1317 55.753 77.4721 58.9759 75.6682 62.1268ZM83.437 59C84.7358 62.223 85.8422 65.446 86.7562 68.5728C83.6054 69.3424 80.2862 69.9918 76.8467 70.4969C78.0253 68.6449 79.2038 66.7448 80.3102 64.7966C81.4166 62.8724 82.4509 60.9242 83.437 59ZM59.0481 84.6637C56.8113 82.3547 54.5744 79.7811 52.3616 76.967C54.5263 77.0632 56.7391 77.1353 58.9759 77.1353C61.2369 77.1353 63.4737 77.0872 65.6625 76.967C63.4978 79.7811 61.2609 82.3547 59.0481 84.6637ZM41.1533 70.4969C37.7379 69.9918 34.4427 69.3665 31.2919 68.5968C32.1818 65.4941 33.2882 62.2952 34.5389 59.0962C35.5251 61.0204 36.5593 62.9446 37.6898 64.8687C38.8202 66.7929 39.9747 68.669 41.1533 70.4969ZM58.9278 20.4444C61.1647 22.7534 63.4016 25.3269 65.6143 28.1411C63.4497 28.0448 61.2369 27.9727 59 27.9727C56.7391 27.9727 54.5022 28.0208 52.3135 28.1411C54.4782 25.3269 56.715 22.7534 58.9278 20.4444ZM41.1292 34.6111C39.9507 36.4631 38.7721 38.3632 37.6657 40.3115C36.5593 42.2356 35.5251 44.1598 34.5389 46.084C33.2401 42.861 32.1337 39.638 31.2197 36.5112C34.3706 35.7656 37.6898 35.1162 41.1292 34.6111ZM19.362 64.7244C10.8475 61.0925 5.33958 56.3302 5.33958 52.554C5.33958 48.7778 10.8475 43.9914 19.362 40.3836C21.4305 39.4937 23.6914 38.7 26.0245 37.9543C27.3954 42.6686 29.1993 47.5752 31.4362 52.6021C29.2234 57.605 27.4435 62.4876 26.0966 67.1777C23.7155 66.4321 21.4545 65.6143 19.362 64.7244ZM32.3021 99.095C29.031 97.2189 27.6119 90.0754 28.7183 80.8875C28.9829 78.6266 29.4158 76.2454 29.945 73.8161C34.6592 74.9706 39.8064 75.8606 45.2181 76.4378C48.4651 80.8875 51.8325 84.9282 55.2238 88.4639C47.3828 95.7517 40.0228 99.7444 35.02 99.7444C33.9376 99.7203 33.0236 99.5039 32.3021 99.095ZM89.3539 80.7672C90.4843 89.9552 89.0893 97.0987 85.8422 98.9988C85.1207 99.4317 84.1826 99.6241 83.0762 99.6241C78.0974 99.6241 70.7134 95.6555 62.8724 88.4158C66.2397 84.8801 69.607 80.8634 72.806 76.4138C78.2418 75.8365 83.3889 74.9466 88.1031 73.768C88.6563 76.1973 89.0893 78.5304 89.3539 80.7672ZM98.6139 64.7244C96.5455 65.6143 94.2846 66.4081 91.9515 67.1537C90.5805 62.4395 88.7766 57.5328 86.5397 52.5059C88.7525 47.5031 90.5324 42.6205 91.8793 37.9303C94.2605 38.6759 96.5214 39.4937 98.638 40.3836C107.152 44.0155 112.66 48.7778 112.66 52.554C112.636 56.3302 107.128 61.1166 98.6139 64.7244Z" fill="white"/>
<path d="M58.976 63.5459C65.0466 63.5459 69.9678 58.6246 69.9678 52.554C69.9678 46.4834 65.0466 41.5622 58.976 41.5622C52.9053 41.5622 47.9841 46.4834 47.9841 52.554C47.9841 58.6246 52.9053 63.5459 58.976 63.5459Z" fill="white"/>
</svg>
