<svg width="118" height="135" viewBox="0 0 118 135" fill="none" xmlns="http://www.w3.org/2000/svg">
<path d="M59.4221 132.467L11.7579 119.082L2.17083 2.00447L115.79 2.23794L105.651 119.091L59.4221 132.467Z" stroke="white" stroke-width="4"/>
<path d="M97.4742 109.788L61.4303 120.235V13.4954L105.83 13.6431L97.4742 109.788Z" stroke="white" stroke-width="4"/>
<path d="M61.6157 56.2065H90.939L87.4271 98.095L59.4736 106.975L30.2965 98.8514L28.651 79.184H39.1758L40.1966 88.5659L40.3464 89.9431L41.6885 90.287L57.4765 94.332L57.9134 94.444L58.3561 94.3576L75.7643 90.9589L77.2312 90.6725L77.3722 89.1846L79.235 69.525L79.4423 67.3363H77.2439H27.5619L26.0031 56.4924L59.49 42.1288L58.7016 38.2907H24.9795L23.511 27.7285H93.9468L93.9461 38.6318L60.8494 52.3591L61.6157 56.2065Z" fill="white" stroke="white" stroke-width="4"/>
</svg>
