<svg width="78" height="115" viewBox="0 0 78 115" fill="none" xmlns="http://www.w3.org/2000/svg">
<path d="M75.788 55.4335L69.6872 36.7963L67.7777 13.0941L67.7577 12.8449L67.5085 12.8649L64.6816 13.0928L64.4324 13.1129L64.4525 13.3621L67.6728 53.3398H9.79489L10.9054 41.2093L11.9711 38.4466L12.0611 38.2133L11.8278 38.1234L11.2095 37.8849L13.4481 13.4329L13.4708 13.184L13.2219 13.1612L10.3974 12.9028L10.1485 12.88L10.1257 13.129L7.62548 40.4411L1.91484 55.2427C0.906252 56.3174 0.283203 57.76 0.283203 59.3483V108.387C0.283203 111.7 2.97856 114.395 6.29176 114.395H71.2407C74.5539 114.395 77.2493 111.7 77.2493 108.387V59.3483C77.2493 57.8517 76.695 56.4854 75.788 55.4335ZM75.0473 59.3483V62.8936H38.7662H2.48517V59.3483C2.48517 57.2459 4.18934 55.5415 6.29176 55.5415H71.2407C73.3432 55.5415 75.0473 57.2459 75.0473 59.3483ZM2.48517 65.0955H75.0473V108.387C75.0473 110.489 73.3432 112.193 71.2407 112.193H6.29176C4.18931 112.193 2.48517 110.489 2.48517 108.387V65.0955ZM6.22506 53.3405L6.51267 52.595L6.44445 53.3398H6.29176C6.26943 53.3398 6.24719 53.34 6.22506 53.3405ZM71.0198 53.3398L70.833 51.0212L71.5961 53.3524C71.4793 53.3444 71.3609 53.3398 71.2407 53.3398H71.0198ZM8.38755 59.3504C8.38755 58.5027 7.70033 57.8154 6.85256 57.8154C6.00479 57.8154 5.31757 58.5027 5.31757 59.3504C5.31757 60.1982 6.00479 60.8854 6.85256 60.8854C7.70033 60.8854 8.38755 60.1982 8.38755 59.3504ZM12.7808 59.3504C12.7808 58.5027 12.0935 57.8154 11.2458 57.8154C10.398 57.8154 9.71078 58.5027 9.71078 59.3504C9.71078 60.1982 10.398 60.8854 11.2458 60.8854C12.0935 60.8854 12.7808 60.1982 12.7808 59.3504ZM17.0356 59.3504C17.0356 58.5027 16.3483 57.8154 15.5006 57.8154C14.6528 57.8154 13.9656 58.5027 13.9656 59.3504C13.9656 60.1982 14.6528 60.8854 15.5006 60.8854C16.3483 60.8854 17.0356 60.1982 17.0356 59.3504Z" fill="white" stroke="white" stroke-width="0.5"/>
<path d="M11.2924 85.9491C11.5131 85.6937 11.6293 85.358 11.6293 84.9413C11.6293 84.5243 11.5131 84.202 11.2924 83.9466C11.06 83.6913 10.7344 83.5703 10.3162 83.5703H8.27107V86.3252H10.3162C10.7344 86.3252 11.06 86.2042 11.2924 85.9491ZM10.3162 81.9176C11.1992 81.9176 11.8966 82.1864 12.4194 82.7372C12.9424 83.288 13.1981 84.027 13.1981 84.9413C13.1981 85.8681 12.9424 86.594 12.4313 87.1448C11.9083 87.6962 11.2111 87.9781 10.3162 87.9781H8.27107V91.6861H6.69067V81.9176H10.3162ZM18.8423 87.9084V85.0588H20.5443V91.4927H18.8423V90.9127C18.3265 91.4282 17.6562 91.686 16.8181 91.686C16.0444 91.686 15.4256 91.4282 14.9485 90.9255C14.4715 90.4228 14.2394 89.7779 14.2394 88.9786V85.0588H15.9414V88.6175C15.9414 89.0688 16.0573 89.4428 16.3022 89.7137C16.5343 89.9843 16.8438 90.1262 17.2434 90.1262C18.3136 90.1262 18.8423 89.3911 18.8423 87.9084ZM27.1838 89.6749C27.5189 89.3266 27.6865 88.8625 27.6865 88.2824C27.6865 87.7023 27.5189 87.225 27.1838 86.877C26.8355 86.5287 26.4101 86.3483 25.8815 86.3483C25.4044 86.3483 24.9791 86.5287 24.6051 86.8899C24.2312 87.251 24.0507 87.7149 24.0507 88.2824C24.0507 88.8496 24.2312 89.3141 24.6051 89.6618C24.9791 90.0232 25.4044 90.2036 25.8815 90.2036C26.4101 90.2036 26.8355 90.0232 27.1838 89.6749ZM26.1781 84.8656C27.0162 84.8656 27.7638 85.1882 28.3959 85.8328C29.0276 86.4902 29.3368 87.3024 29.3368 88.2824C29.3368 89.2621 29.0276 90.0746 28.3959 90.7191C27.7638 91.364 27.029 91.686 26.1781 91.686C25.3399 91.686 24.6308 91.4539 24.0507 90.9901V94.5622H22.3488V85.0589H24.0507V85.5747C24.618 85.0977 25.3271 84.8656 26.1781 84.8656ZM35.4608 89.6749C35.7959 89.3266 35.9635 88.8625 35.9635 88.2824C35.9635 87.7023 35.7959 87.225 35.4608 86.877C35.1125 86.5287 34.6871 86.3483 34.1585 86.3483C33.6814 86.3483 33.2561 86.5287 32.8821 86.8899C32.5082 87.251 32.3275 87.7149 32.3275 88.2824C32.3275 88.8496 32.5082 89.3141 32.8821 89.6618C33.2561 90.0232 33.6814 90.2036 34.1585 90.2036C34.6871 90.2036 35.1125 90.0232 35.4608 89.6749ZM34.4548 84.8656C35.2929 84.8656 36.0408 85.1882 36.6729 85.8328C37.3043 86.4902 37.6138 87.3024 37.6138 88.2824C37.6138 89.2621 37.3043 90.0746 36.6729 90.7191C36.0408 91.364 35.306 91.686 34.4548 91.686C33.6169 91.686 32.9078 91.4539 32.3275 90.9901V94.5622H30.6258V85.0589H32.3275V85.5747C32.895 85.0977 33.6041 84.8656 34.4548 84.8656ZM40.1274 87.5345H43.2348C43.1317 87.1348 42.9382 86.8385 42.6675 86.6446C42.3966 86.4514 42.0746 86.3483 41.7132 86.3483C41.3655 86.3483 41.0301 86.4514 40.7335 86.6578C40.424 86.8642 40.2176 87.1605 40.1274 87.5345ZM41.7132 84.8656C42.5902 84.8656 43.351 85.1751 43.9827 85.7811C44.6144 86.4 44.9367 87.1862 44.9756 88.1533V88.7337H40.0761C40.1663 89.1847 40.3595 89.5456 40.6564 89.8168C40.9527 90.0874 41.2879 90.229 41.6875 90.229C42.4226 90.229 42.9513 89.9455 43.2864 89.3783L44.808 89.7006C44.5371 90.3583 44.1246 90.8485 43.583 91.1836C43.0415 91.5187 42.4098 91.686 41.6875 91.686C40.7592 91.686 39.9727 91.364 39.341 90.7323C38.7092 90.1005 38.3866 89.2753 38.3866 88.2824C38.3866 87.2898 38.7092 86.4645 39.3538 85.8196C39.9856 85.1882 40.7723 84.8656 41.7132 84.8656ZM49.6682 90.1005C49.9905 90.1005 50.3516 89.9971 50.7384 89.791L51.2283 91.2092C50.6351 91.5315 50.0807 91.6863 49.552 91.6863C48.7655 91.6863 48.1466 91.467 47.6953 91.0414C47.2443 90.6163 47.025 89.9843 47.025 89.1205V86.4513H45.6454V85.0588H47.025V83.1122H48.727V85.0588H50.8286V86.4513H48.727V88.9914C48.727 89.7265 49.0365 90.1005 49.6682 90.1005ZM53.239 87.5345H56.3463C56.2433 87.1348 56.0497 86.8385 55.7791 86.6446C55.5082 86.4514 55.1862 86.3483 54.8248 86.3483C54.4771 86.3483 54.1416 86.4514 53.845 86.6578C53.5356 86.8642 53.3292 87.1605 53.239 87.5345ZM54.8248 84.8656C55.7017 84.8656 56.4625 85.1751 57.0942 85.7811C57.726 86.4 58.0483 87.1862 58.0871 88.1533V88.7337H53.1876C53.2778 89.1847 53.4711 89.5456 53.768 89.8168C54.0643 90.0874 54.3994 90.229 54.7991 90.229C55.5342 90.229 56.0629 89.9455 56.398 89.3783L57.9192 89.7006C57.6486 90.3583 57.2361 90.8485 56.6946 91.1836C56.1531 91.5187 55.5213 91.686 54.7991 91.686C53.8707 91.686 53.0843 91.364 52.4525 90.7323C51.8208 90.1005 51.4982 89.2753 51.4982 88.2824C51.4982 87.2898 51.8208 86.4645 52.4654 85.8196C53.0971 85.1882 53.8839 84.8656 54.8248 84.8656ZM60.8842 87.5345H63.9915C63.8884 87.1348 63.6949 86.8385 63.4243 86.6446C63.1534 86.4514 62.8314 86.3483 62.4699 86.3483C62.1222 86.3483 61.7868 86.4514 61.4902 86.6578C61.1808 86.8642 60.9744 87.1605 60.8842 87.5345ZM62.4699 84.8656C63.3469 84.8656 64.1077 85.1751 64.7394 85.7811C65.3712 86.4 65.6935 87.1862 65.7323 88.1533V88.7337H60.8328C60.923 89.1847 61.1162 89.5456 61.4131 89.8168C61.7095 90.0874 62.0446 90.229 62.4442 90.229C63.1793 90.229 63.708 89.9455 64.0432 89.3783L65.5647 89.7006C65.2938 90.3583 64.8813 90.8485 64.3398 91.1836C63.7982 91.5187 63.1665 91.686 62.4442 91.686C61.5159 91.686 60.7294 91.364 60.0977 90.7323C59.466 90.1005 59.1434 89.2753 59.1434 88.2824C59.1434 87.2898 59.466 86.4645 60.1105 85.8196C60.7423 85.1882 61.529 84.8656 62.4699 84.8656ZM71.0309 84.9687C71.2245 84.9687 71.3792 84.9815 71.4825 85.0201L71.392 86.6578H71.0184C69.484 86.6578 68.7229 87.5733 68.7229 89.4172V91.4928H67.0212V85.0589H68.7229V86.2322C69.3032 85.394 70.0769 84.9687 71.0309 84.9687Z" fill="white" stroke="white" stroke-width="0.3"/>
<path d="M64.738 37.8102V35.901L71.6498 32.3193V34.464L64.738 37.8102ZM5.56666 32.2691L12.2455 36.1032V37.6295L5.56666 34.2507V32.2691ZM39.7772 24.2062L62.7525 35.5581V37.8407L39.7772 26.0706V24.2062ZM14.2309 35.8902L37.7917 24.2085V26.07L14.2309 37.9904V35.8902ZM30.9137 16.8021L7.07119 5.29095L13.2464 2.15256L38.7843 15.3916L63.8948 2.15823L70.288 5.43283L47.0373 17.1339C46.1077 17.6017 46.1092 18.9294 47.0397 19.3951L70.0506 30.9119L64.0862 34.0025L38.7843 21.0382L13.0349 34.2671L7.15393 30.891L30.9268 19.074C31.8686 18.6059 31.8608 17.2594 30.9137 16.8021ZM5.86356 9.19102V7.09597L28.1003 18.1901L25.8523 19.0883L5.86356 9.19102ZM51.4606 19.2117C51.4302 19.1931 49.3309 18.2027 49.3309 18.2027L71.6498 6.97022V9.07453L51.4606 19.2117ZM53.6946 20.3118L73.3114 10.462C73.5101 10.3622 73.6355 10.1588 73.6355 9.93656V5.27602C73.6355 5.05528 73.5119 4.85336 73.3156 4.7527L64.1657 0.0661661C63.9981 -0.0195596 63.7995 -0.0198583 63.6316 0.06527L39.0481 12.54C38.8823 12.6242 38.6863 12.6251 38.5197 12.5418L13.503 0.0616857C13.3366 -0.0213517 13.1404 -0.0204557 12.9743 0.0637765L3.90263 4.67385C3.70519 4.77421 3.58093 4.97672 3.58093 5.19806V9.93388C3.58093 10.1576 3.70788 10.3619 3.9086 10.4611L23.6079 20.1938L3.9997 29.9298C3.80346 30.0274 3.67741 30.2261 3.67353 30.4456L3.5878 35.1026C3.58362 35.3281 3.70907 35.536 3.9101 35.6378L13.3301 40.4038C13.4964 40.4878 13.6927 40.488 13.8593 40.4044L38.5191 28.022C38.6857 27.9381 38.8826 27.9387 39.0492 28.0232L63.4016 40.4053C63.5653 40.4884 63.7585 40.4904 63.924 40.4104L73.3037 35.8693C73.5065 35.771 73.6355 35.5655 73.6355 35.3403V30.4746C73.6355 30.2503 73.508 30.0457 73.3066 29.9468L53.6946 20.3118Z" fill="white"/>
</svg>
