<svg width="486" height="501" viewBox="0 0 486 501" fill="none" xmlns="http://www.w3.org/2000/svg">
<g opacity="0.76" clip-path="url(#clip0_1_744)">
<g filter="url(#filter0_d_1_744)">
<path d="M339.123 2.69022e-07C327.858 -0.00122982 316.593 4.21594 308.148 12.6496L212.442 108.226C195.552 125.093 195.552 153.233 212.442 170.1L218.699 176.341L250.093 144.989L244.249 139.159L339.123 44.413L441.526 146.676L346.651 241.423L340.813 235.586L309.419 266.938L315.675 273.186C332.565 290.053 360.736 290.046 377.626 273.179L473.332 177.61C490.222 160.743 490.222 132.61 473.332 115.743L370.099 12.6565C361.654 4.22292 350.389 0.00123036 339.123 2.69022e-07Z" fill="#A1D2DF" fill-opacity="0.5" shape-rendering="crispEdges"/>
</g>
<g filter="url(#filter1_d_1_744)">
<path d="M168.088 170.804C156.821 170.804 145.557 175.02 137.112 183.454L41.4061 279.03C24.5159 295.897 24.5229 324.03 41.413 340.897L144.639 443.99C161.529 460.857 189.7 460.857 206.591 443.99L302.289 348.414C319.18 331.547 319.187 303.414 302.296 286.547L296.04 280.299L264.652 311.644L270.497 317.474L175.615 412.227L73.2126 309.963L168.088 215.21L173.932 221.047L205.32 189.702L199.07 183.454C190.625 175.02 179.354 170.804 168.088 170.804Z" fill="#A1D2DF" fill-opacity="0.5" shape-rendering="crispEdges"/>
</g>
<g filter="url(#filter2_d_1_744)">
<path fill-rule="evenodd" clip-rule="evenodd" d="M298.142 127.758C295.621 127.758 293.099 128.763 291.089 130.77L159.687 261.994C155.667 266.009 155.667 272.065 159.687 276.08L209.551 325.876C213.572 329.891 219.629 329.884 223.649 325.87L355.051 194.646C359.072 190.631 359.079 184.582 355.058 180.567L305.194 130.77C303.184 128.763 300.662 127.758 298.142 127.758Z" fill="#84B6C6" fill-opacity="0.5" shape-rendering="crispEdges"/>
</g>
</g>
<defs>
<filter id="filter0_d_1_744" x="195.774" y="0" width="294.226" height="295.833" filterUnits="userSpaceOnUse" color-interpolation-filters="sRGB">
<feFlood flood-opacity="0" result="BackgroundImageFix"/>
<feColorMatrix in="SourceAlpha" type="matrix" values="0 0 0 0 0 0 0 0 0 0 0 0 0 0 0 0 0 0 127 0" result="hardAlpha"/>
<feOffset dy="6"/>
<feGaussianBlur stdDeviation="2"/>
<feComposite in2="hardAlpha" operator="out"/>
<feColorMatrix type="matrix" values="0 0 0 0 0 0 0 0 0 0 0 0 0 0 0 0 0 0 0.25 0"/>
<feBlend mode="normal" in2="BackgroundImageFix" result="effect1_dropShadow_1_744"/>
<feBlend mode="normal" in="SourceGraphic" in2="effect1_dropShadow_1_744" result="shape"/>
</filter>
<filter id="filter1_d_1_744" x="24.7419" y="170.804" width="294.219" height="295.837" filterUnits="userSpaceOnUse" color-interpolation-filters="sRGB">
<feFlood flood-opacity="0" result="BackgroundImageFix"/>
<feColorMatrix in="SourceAlpha" type="matrix" values="0 0 0 0 0 0 0 0 0 0 0 0 0 0 0 0 0 0 127 0" result="hardAlpha"/>
<feOffset dy="6"/>
<feGaussianBlur stdDeviation="2"/>
<feComposite in2="hardAlpha" operator="out"/>
<feColorMatrix type="matrix" values="0 0 0 0 0 0 0 0 0 0 0 0 0 0 0 0 0 0 0.25 0"/>
<feBlend mode="normal" in2="BackgroundImageFix" result="effect1_dropShadow_1_744"/>
<feBlend mode="normal" in="SourceGraphic" in2="effect1_dropShadow_1_744" result="shape"/>
</filter>
<filter id="filter2_d_1_744" x="152.672" y="127.758" width="209.398" height="211.126" filterUnits="userSpaceOnUse" color-interpolation-filters="sRGB">
<feFlood flood-opacity="0" result="BackgroundImageFix"/>
<feColorMatrix in="SourceAlpha" type="matrix" values="0 0 0 0 0 0 0 0 0 0 0 0 0 0 0 0 0 0 127 0" result="hardAlpha"/>
<feOffset dy="6"/>
<feGaussianBlur stdDeviation="2"/>
<feComposite in2="hardAlpha" operator="out"/>
<feColorMatrix type="matrix" values="0 0 0 0 0 0 0 0 0 0 0 0 0 0 0 0 0 0 0.25 0"/>
<feBlend mode="normal" in2="BackgroundImageFix" result="effect1_dropShadow_1_744"/>
<feBlend mode="normal" in="SourceGraphic" in2="effect1_dropShadow_1_744" result="shape"/>
</filter>
<clipPath id="clip0_1_744">
<rect width="486" height="501" fill="white"/>
</clipPath>
</defs>
</svg>
