<svg width="81" height="65" viewBox="0 0 81 65" fill="none" xmlns="http://www.w3.org/2000/svg">
<path d="M64.1304 43.7496C63.6864 46.3064 62.1063 48.5396 59.7959 49.8773C57.6419 51.124 55.0609 51.4961 52.3279 51.8899C50.864 52.1008 49.3502 52.3192 47.8713 52.6836C43.9611 53.6473 40.1735 55.5276 36.5111 57.3458C29.1811 60.9847 22.8509 64.1269 16.8821 59.9923C12.5098 56.9638 12.7116 51.3604 13.221 48.2899C13.6931 45.445 14.9695 42.8249 16.2036 40.2913C16.4138 39.8607 16.6224 39.4293 16.8292 38.997C17.4513 39.2456 18.1041 39.4092 18.7699 39.4836C17.5135 43.6276 19.4893 48.1334 23.6361 50.2625L24.2038 50.554L24.8047 50.3401C28.083 49.1731 31.104 47.3009 33.7834 44.7742C35.5153 43.141 37.0046 41.3343 38.2285 39.4036C38.6006 39.4598 38.9764 39.4879 39.3527 39.488C43.1589 39.488 46.3106 36.6442 46.7984 32.9714C48.3563 32.9144 50.011 32.9139 51.5779 32.9709C52.0652 36.6442 55.2174 39.4882 59.0236 39.4882C60.6151 39.4882 62.0912 38.9897 63.3073 38.1429C64.1516 39.8702 64.4667 41.8137 64.1304 43.7496ZM19.6079 27.4614C22.1243 27.4614 24.1714 29.5076 24.1714 32.0226C24.1714 32.9259 23.9062 33.7683 23.4508 34.4777C22.6923 35.6601 21.4028 36.4705 19.9214 36.5716C19.8178 36.5785 19.7132 36.5835 19.6079 36.5835C19.0471 36.5835 18.5099 36.4813 18.0132 36.2957C17.0128 35.9197 16.1751 35.2066 15.6446 34.2794C15.2506 33.5925 15.0436 32.8144 15.0442 32.0226C15.0442 29.5076 17.0915 27.4614 19.6079 27.4614ZM34.7895 31.9792C34.7895 29.6941 36.4796 27.7968 38.6756 27.4688C38.8967 27.4354 39.1229 27.4182 39.353 27.4182C40.816 27.4182 42.1186 28.1108 42.9538 29.1841C43.1631 29.4517 43.3418 29.7418 43.4866 30.049C43.7703 30.653 43.9171 31.312 43.9165 31.9792C43.9165 32.3437 43.8723 32.6982 43.7912 33.0382C43.3464 34.899 41.7588 36.3214 39.8134 36.5172C39.6621 36.5323 39.5086 36.5401 39.353 36.5401C38.4752 36.5408 37.616 36.287 36.8798 35.8094C35.6234 34.9959 34.7895 33.5833 34.7895 31.9792ZM53.8362 26.5554C52.8431 27.5027 52.1285 28.7037 51.7696 30.0281C50.0495 29.9647 48.3277 29.9647 46.6076 30.0281C46.2214 28.5965 45.4211 27.3335 44.3442 26.3741L49.0666 16.8309L53.8362 26.5554ZM33.4947 3.00468H64.6253L57.2725 24.6781C56.9562 24.7538 56.6452 24.8501 56.3414 24.9664L49.078 10.1576L41.794 24.8779C41.4765 24.769 41.152 24.6816 40.8227 24.6163L33.4947 3.00468ZM63.5871 31.9794C63.5871 32.4366 63.5188 32.8781 63.3931 33.295C63.0948 34.2767 62.4753 35.1297 61.634 35.7175C60.8694 36.2538 59.9577 36.5412 59.0236 36.5404C56.9165 36.5404 55.139 35.1053 54.6164 33.1618C54.5126 32.7762 54.46 32.3787 54.4601 31.9794C54.4601 31.3559 54.586 30.7614 54.8136 30.2197C54.931 29.9425 55.0756 29.6777 55.2452 29.429C56.0665 28.2174 57.4523 27.4184 59.0236 27.4184C59.1677 27.4184 59.3097 27.4258 59.4506 27.4391C61.7675 27.6548 63.5873 29.6082 63.5873 31.9794H63.5871ZM66.5368 31.9794C66.5368 28.3135 63.8939 25.2547 60.413 24.6013L68.7397 0.0563965H29.3808L37.7203 24.651C34.3603 25.3982 31.84 28.3991 31.84 31.9792C31.84 34.6674 33.2614 37.0285 35.3917 38.3554C34.367 39.8812 33.152 41.317 31.7595 42.6301C29.5511 44.7121 27.091 46.2913 24.4387 47.3303C21.7672 45.6531 20.6379 42.49 21.8106 39.7347L21.9025 39.5187L22.0749 39.1135C25.0092 38.0905 27.1209 35.2994 27.1209 32.0226C27.1209 27.882 23.7506 24.5136 19.6079 24.5136C15.4653 24.5136 12.0945 27.882 12.0945 32.0226C12.0945 34.1124 12.9541 36.0049 14.3374 37.3676C14.0794 37.9139 13.8175 38.4584 13.5517 39.0009C12.2869 41.5971 10.8535 44.5396 10.3113 47.8074C9.23465 54.2972 10.9714 59.485 15.2019 62.4152C17.7689 64.1932 20.3759 64.8925 22.9992 64.8925C27.9387 64.8925 32.9357 62.4122 37.8231 59.9858C41.3428 58.2388 44.9825 56.432 48.5777 55.5457C49.9154 55.2161 51.2918 55.0176 52.749 54.8076C55.639 54.3909 58.6271 53.9602 61.274 52.4281C64.3424 50.6519 66.4425 47.6724 67.0365 44.2541C67.5463 41.3193 66.9328 38.38 65.4365 35.887C66.1575 34.711 66.5383 33.3584 66.5368 31.9792V31.9794Z" fill="white"/>
</svg>
