<svg width="118" height="95" viewBox="0 0 118 95" fill="none" xmlns="http://www.w3.org/2000/svg">
<g clip-path="url(#clip0_32_13)">
<path d="M55.7319 6.15585C56.3239 7.04392 56.9737 7.85061 57.735 8.60879L57.7395 8.61326C59.8413 10.6888 61.8004 12.904 63.6036 15.2436C67.8035 20.7592 70.6541 26.9052 72.7014 33.607C73.914 37.6522 74.5703 41.7941 74.6195 45.9764L74.6196 45.9831C74.8227 58.525 70.5405 69.2545 61.8731 78.2066C60.6822 79.4046 59.41 80.5183 58.0656 81.5399C58.007 81.4512 57.946 81.3491 57.8701 81.2191C57.2992 80.2219 56.9192 79.1271 56.7496 77.9906L56.744 77.9535L56.7367 77.9168C56.4341 76.4099 56.2537 74.9884 56.3438 73.5571L56.3468 73.51V73.4629V72.7322V72.4028L56.3352 72.3777C56.3323 72.2494 56.329 72.0801 56.3252 71.8707C56.3157 71.3387 56.3038 70.561 56.2899 69.5711C56.2623 67.5921 56.2271 64.7719 56.1879 61.3898C56.1094 54.6259 56.0147 45.6176 55.932 36.6027C55.8493 27.5874 55.7786 18.5674 55.748 11.7791C55.7385 9.66431 55.7328 7.76757 55.7319 6.15585Z" stroke="white" stroke-width="3"/>
<path d="M52.0677 6.29702C52.3159 6.08212 52.5803 5.85319 52.8477 5.60713L53.3849 73.4766L52.3531 81.1833C52.3184 81.4051 52.2779 81.6259 52.2317 81.8455C51.1584 80.969 50.1247 80.0671 49.1433 79.1223C43.3362 73.4161 38.8969 66.8879 36.4278 59.1316C36.0069 57.7678 35.4848 54.5261 35.099 51.1436C34.7116 47.7477 34.4984 44.53 34.6133 43.2181L34.6145 43.2042L34.6155 43.1904C35.1719 35.1288 37.1299 27.5096 40.9092 20.415C43.7638 15.1185 47.309 10.4179 51.7891 6.53895L51.7891 6.53896L51.7948 6.53405C51.8829 6.45692 51.9742 6.37797 52.0677 6.29702Z" stroke="white" stroke-width="3"/>
<path d="M55.3221 86.6148C55.2669 86.9947 55.2013 87.4465 55.1658 87.9264C54.975 86.7399 54.7101 85.5479 54.3299 84.3582C54.7672 83.4821 54.9096 82.5828 55.0133 81.9181C55.1349 82.1717 55.266 82.4207 55.4064 82.6647L55.4219 82.6915L55.4384 82.7178C55.6371 83.0321 55.8831 83.3692 56.1879 83.6841C55.8706 84.2944 55.5898 84.9812 55.4464 85.7509L55.4394 85.7579L55.4199 85.9042C55.4038 86.0048 55.3901 86.1068 55.379 86.2102L55.3723 86.2602C55.3577 86.3694 55.3405 86.4881 55.3221 86.6148Z" fill="#C2BFBF" stroke="white" stroke-width="3"/>
</g>
<defs>
<clipPath id="clip0_32_13">
<rect width="118" height="95" fill="white"/>
</clipPath>
</defs>
</svg>
