<svg width="118" height="117" viewBox="0 0 118 117" fill="none" xmlns="http://www.w3.org/2000/svg">
<path d="M25.5094 79.0189C23.9822 78.094 23.2235 76.2827 22.5076 74.5735C22.4214 74.3676 22.3357 74.1632 22.2495 73.962C19.8434 68.2685 19.4423 59.1263 21.5281 52.5505C21.6346 52.231 21.8075 51.7816 22.0112 51.2522C22.8812 48.9909 24.313 45.2695 23.5332 43.9697C23.2303 43.0107 22.4826 42.3058 21.7501 41.6153C21.3187 41.2086 20.8925 40.8068 20.5656 40.361C19.5235 38.8372 18.4002 36.9132 17.6788 35.2285M25.5094 79.0189L3.96544 5.55657C3.32382 6.519 3.8857 7.96266 4.28626 8.84443C5.08135 10.5403 6.08663 11.7812 7.11675 13.0527C7.6453 13.7052 8.18038 14.3657 8.69697 15.0998C8.94334 15.4475 9.20013 15.803 9.46121 16.1645C10.6455 17.8041 11.9181 19.5659 12.7067 21.2745C13.8189 23.6705 14.6118 26.2035 15.4017 28.7272C16.0924 30.9339 16.7809 33.1336 17.6788 35.2285M25.5094 79.0189C25.5041 79.0611 25.4988 79.1032 25.4934 79.1453L25.8137 79.186C26.0741 79.315 26.3552 79.4196 26.6602 79.496C26.7328 79.423 26.7397 79.3996 26.7554 79.3884C26.7743 79.3749 26.8059 79.3791 26.9814 79.3347C27.0988 78.4128 27.1986 77.4979 27.2971 76.5958L25.5094 79.0189ZM17.6788 35.2285L16.2999 35.8189C16.3 35.8191 16.3 35.8193 16.3001 35.8194C17.0706 37.6188 18.248 39.6294 19.3275 41.2078L19.3414 41.2281L19.356 41.248C19.7732 41.817 20.3535 42.363 20.8023 42.7851C20.9308 42.906 21.0485 43.0168 21.1485 43.115C21.6876 43.6445 21.9791 44.0297 22.1028 44.4214L22.156 44.5899L22.2448 44.7378C22.2402 44.7303 22.2378 44.7265 22.2369 44.7268C22.2303 44.7292 22.2986 44.943 22.2178 45.5535C22.1358 46.1732 21.938 46.9408 21.6726 47.7755C21.4103 48.6005 21.0994 49.4377 20.8123 50.1897C20.7486 50.3564 20.6848 50.5221 20.6225 50.6841C20.415 51.2233 20.2234 51.721 20.1051 52.0762L20.1016 52.0866L20.0983 52.097C17.9108 58.9934 18.3147 68.5047 20.8677 74.5459L20.8708 74.5531C20.9461 74.7286 21.024 74.915 21.1051 75.1092C21.4995 76.0531 21.971 77.1815 22.5945 78.1451C23.3837 79.3647 24.5242 80.5074 26.2957 80.9511L27.1227 81.1582L27.5372 80.7413L28.3403 80.5382L28.4694 79.5241C28.5951 78.5366 28.6963 77.606 28.7944 76.7045C28.9269 75.4855 29.0537 74.3196 29.2275 73.1378C29.5206 71.1451 29.9174 69.3747 30.5988 67.8319L30.6076 67.812L30.6158 67.7919C30.9737 66.9135 31.526 66.1267 32.1997 65.2893C32.3658 65.0829 32.547 64.8648 32.7358 64.6381C32.8043 64.8436 32.8879 65.0634 32.993 65.2807C33.0621 65.4456 33.1318 65.6119 33.2019 65.7795C33.4821 66.4489 33.7707 67.1383 34.0688 67.8371L32.1964 70.3361C31.7361 70.9504 31.6057 71.5615 31.5404 72.0311C31.5162 72.205 31.5009 72.3425 31.4875 72.4631C31.4617 72.6944 31.4429 72.8639 31.3814 73.1107C31.0955 74.213 30.9412 75.3323 30.8133 76.3489C30.7946 76.4973 30.7766 76.6429 30.7588 76.7859C30.6509 77.6567 30.5549 78.4306 30.4049 79.1492C30.0625 80.7891 29.5361 81.6698 28.4291 82.1125L28.4219 82.1154L28.4147 82.1183C27.053 82.6793 25.8429 82.2945 24.6583 81.35C23.4398 80.3784 22.4723 78.9693 21.8366 77.977C18.0162 71.748 16.8949 60.9938 19.6684 52.2857C19.917 51.5097 20.1001 50.6317 20.2617 49.8569C20.325 49.5531 20.3851 49.2652 20.4445 49.0055C20.6789 47.9805 20.9299 47.2227 21.3139 46.6739L21.6654 46.1715L21.5644 45.5668C21.375 44.4331 20.8166 43.703 20.2933 43.1796C20.134 43.0202 19.9405 42.8457 19.7928 42.7124C19.7364 42.6616 19.6868 42.6168 19.6482 42.5811C19.4714 42.4177 19.3662 42.3059 19.2927 42.2049L19.2874 42.1977C18.2403 40.7766 17.3249 39.1057 16.4447 37.4258C15.2161 35.0265 14.263 32.2952 13.3 29.5357C12.9882 28.6422 12.6753 27.7457 12.3518 26.8566L12.3461 26.8411L12.3401 26.8257C12.1002 26.2089 11.9415 25.5823 11.7583 24.8593L11.7549 24.8457C11.5775 24.1456 11.3739 23.3428 11.0463 22.5478L11.0344 22.5189L11.0213 22.4906C10.185 20.6786 8.78657 18.852 7.61137 17.317C7.31872 16.9347 7.03992 16.5706 6.78708 16.2292C6.44766 15.7439 5.9883 15.1666 5.51458 14.5713C5.3028 14.3051 5.08815 14.0354 4.88006 13.7686C4.16479 12.8516 3.43879 11.8643 2.83987 10.8231C1.62583 8.71262 1.08551 6.65505 1.90238 4.68887L1.90241 4.68888L1.90614 4.67973C2.58643 3.01135 3.6227 2.17847 4.83657 1.78856C6.12768 1.37385 7.75891 1.42035 9.59896 1.83698C13.279 2.67023 17.1896 4.83966 19.4383 6.25988C19.7892 6.48622 20.1621 6.81448 20.6499 7.244C20.7735 7.35279 20.9045 7.46808 21.0443 7.58985C21.655 8.12165 22.4543 8.7916 23.333 9.17603L23.5917 9.28922L23.8739 9.30058C24.8589 9.34022 25.8467 9.39943 26.8517 9.45973L26.8594 9.4602C27.8101 9.51725 28.7764 9.57522 29.7452 9.61597C30.016 9.67918 30.2838 9.74133 30.5488 9.80282C33.9993 10.6035 36.9569 11.2897 39.4639 12.7098C53.0655 20.6988 61.8527 28.7906 69.9656 42.181L69.9687 42.186C70.7857 43.5225 71.4108 44.9349 72.0236 46.4475C72.1829 46.8405 72.3428 47.2445 72.5058 47.6562C72.9549 48.7904 73.4268 49.9822 73.9679 51.1569C75.9771 55.8167 78.235 60.7347 80.5794 65.1841C80.8234 65.6732 81.0565 66.1819 81.2984 66.7153C81.3275 66.7794 81.3567 66.844 81.3861 66.9089C81.6001 67.3815 81.8229 67.8735 82.0559 68.3577C82.5788 69.4443 83.1926 70.5777 84.0119 71.5876C84.5933 72.3767 85.5346 72.754 86.0917 72.9617C86.3072 73.042 86.5478 73.1241 86.7584 73.1959C86.8533 73.2283 86.9421 73.2585 87.0197 73.2856C87.3014 73.384 87.5033 73.4624 87.6515 73.5361C88.7367 74.0945 89.92 74.6052 91.0561 75.0954C91.3613 75.2271 91.663 75.3574 91.9586 75.4867C93.3952 76.1152 94.7229 76.7365 95.8569 77.4681L95.8679 77.4752L95.8791 77.4821C100.118 80.1133 104.236 83.2282 108.042 86.4546C107.733 86.2094 107.41 85.9761 107.094 85.7584C106.472 85.3298 105.822 84.9255 105.272 84.5832L105.25 84.5695C104.665 84.2057 104.241 83.9403 103.985 83.7484L103.973 83.7392L103.961 83.7302C101.392 81.8852 98.629 79.9325 95.8541 78.2192L95.8481 78.2156C94.9788 77.6844 93.8589 77.2583 92.8677 76.9015C92.6271 76.8148 92.3934 76.732 92.1672 76.6519C91.3965 76.3788 90.7137 76.1368 90.1477 75.8823L90.1233 75.8713L90.0984 75.8612C89.4812 75.6097 88.7077 75.3701 87.9424 75.1397C87.7942 75.0951 87.6453 75.0505 87.496 75.0059C86.8482 74.812 86.1938 74.6162 85.5561 74.4036C84.7702 74.1416 84.0704 73.8735 83.5148 73.5904C82.9275 73.2912 82.6618 73.0541 82.5731 72.9299L82.5577 72.9084L82.5416 72.8875C80.4779 70.2046 79.0302 66.9468 77.4955 63.4933C77.3416 63.1469 77.1868 62.7986 77.0304 62.4487M17.6788 35.2285L81.3527 73.8021M69.2913 45.1216C63.3162 33.5832 54.4755 23.9204 43.7428 17.1206L43.7377 17.1173C40.2192 14.9081 36.2549 12.8383 31.8497 11.4258L31.8361 11.4214L31.8225 11.4173C30.417 10.9959 28.9162 10.914 27.5895 10.8546C27.4912 10.8502 27.3937 10.8459 27.2972 10.8417C26.026 10.7858 24.9027 10.7364 23.853 10.5069L23.6947 10.4724H23.5327H22.0871C21.738 10.3356 21.332 10.0582 20.8186 9.61919C20.6726 9.49432 20.5005 9.33934 20.3143 9.17158C19.8873 8.78691 19.3858 8.33506 18.9519 8.02502L18.9366 8.01405L18.9209 8.00346C16.311 6.23591 13.717 5.06716 10.7354 3.85848C10.1458 3.58867 9.06287 3.15751 7.95075 2.90176C7.38607 2.7719 6.7486 2.67169 6.13245 2.68754C5.64014 2.7002 5.00596 2.79062 4.4365 3.14003C4.08697 3.25063 3.6974 3.42495 3.34991 3.73371C2.94953 4.08946 2.71759 4.52055 2.57818 4.95403L67.9606 45.8139M69.2913 45.1216C69.2917 45.1224 69.2922 45.1233 69.2926 45.1242L67.9606 45.8139M69.2913 45.1216C69.291 45.121 69.2907 45.1204 69.2904 45.1198L67.9606 45.8139M69.2913 45.1216C69.8184 46.1317 70.186 47.0883 70.5198 47.989C70.5613 48.101 70.6022 48.2118 70.6428 48.3218C70.934 49.111 71.2078 49.8531 71.5693 50.6416L71.5771 50.6586L71.5845 50.6758C72.4133 52.6092 73.3432 54.5683 74.2866 56.5456C74.3384 56.6542 74.3903 56.7629 74.4422 56.8716C75.3295 58.7309 76.2246 60.6063 77.0304 62.4487M67.9606 45.8139C68.5007 46.8486 68.8639 47.8334 69.2345 48.8384C69.5243 49.6243 69.8187 50.4226 70.2058 51.2668C71.0937 53.3379 72.0927 55.4312 73.0855 57.5115C73.9765 59.3785 74.8625 61.2351 75.6587 63.0558M77.0304 62.4487C77.0297 62.447 77.0289 62.4454 77.0282 62.4437L75.6587 63.0558M77.0304 62.4487C77.0313 62.4507 77.0322 62.4527 77.0331 62.4547L75.6587 63.0558M75.6587 63.0558C75.8173 63.4105 75.9751 63.7659 76.1329 64.1214C77.652 67.5427 79.1731 70.9686 81.3527 73.8021M81.3527 73.8021C82.1994 74.9869 84.8337 75.775 87.0748 76.4456C88.0178 76.7277 88.8912 76.989 89.5325 77.2503C90.1603 77.5327 90.9233 77.8029 91.706 78.08L81.3527 73.8021ZM41.2041 81.4184C39.5165 78.7062 37.9445 75.8969 36.4745 73.0459C36.4744 73.0457 36.4743 73.0455 36.4742 73.0453L41.2041 81.4184ZM41.2041 81.4184C39.9769 80.0742 38.8701 78.6867 38.0032 77.3305C37.2192 75.6473 36.3884 74.0006 35.5589 72.3565C35.3378 71.9183 35.1168 71.4802 34.8968 71.0417M41.2041 81.4184L34.8968 71.0417M34.8968 71.0417V69.7383V71.0417ZM108.582 91.0191L110.212 91.0597C110.041 91.1053 109.87 91.1495 109.699 91.1923L109.689 91.1947C108.407 91.5245 107.189 91.6558 105.863 91.7974L105.841 91.7999C104.546 91.9382 103.141 92.0883 101.659 92.4808L101.645 92.4845L101.631 92.4884C101.455 92.5387 101.278 92.5898 101.099 92.6412C99.4944 93.1031 97.8018 93.5903 96.3739 93.7201L93.1968 94.009L95.391 96.2162C95.7911 97.1304 96.4528 97.9185 97.1624 98.5858C97.9709 99.3459 98.9366 100.037 99.8984 100.655C100.826 101.252 101.795 101.81 102.665 102.311L102.767 102.369C103.679 102.894 104.45 103.341 105.031 103.739C106.895 105.079 108.665 106.592 110.269 108.258C108.824 107.404 107.311 106.705 105.868 106.041L105.814 106.016C104.167 105.257 102.609 104.54 101.154 103.646C99.4565 102.564 97.8246 101.322 96.1355 100.036L96.126 100.028L96.1165 100.021C94.8187 99.0647 93.2574 97.0873 92.3422 95.5639L92.3321 95.5472L92.3217 95.5308C92.17 95.2926 92.0764 95.0424 91.9248 94.6377C91.9008 94.5736 91.8754 94.5056 91.848 94.4331C91.7779 94.2477 91.6903 94.019 91.5713 93.7741C91.8018 93.6861 92.0726 93.6143 92.4397 93.5189L92.472 93.5105C92.7991 93.4256 93.226 93.3148 93.6181 93.1581L93.632 93.1526L93.6458 93.1467C97.5392 91.4998 102.271 90.8618 108.582 91.0191ZM110.361 91.0196L110.102 89.2966C109.967 88.3961 109.371 87.6796 108.892 87.2019C108.826 87.1364 108.759 87.0714 108.689 87.0069C108.764 87.0706 108.838 87.1343 108.911 87.198C109.549 87.7704 110.11 88.4811 110.742 89.3143C110.797 89.3864 110.853 89.4597 110.909 89.5339C111.173 89.8826 111.452 90.2519 111.75 90.6216C111.283 90.7614 110.821 90.8952 110.361 91.0196ZM27.0845 80.8478L27.0849 80.8477L27.0845 80.8478Z" fill="white" stroke="white" stroke-width="3"/>
<path d="M26.8201 19.8306C25.4571 19.8306 24.4952 19.9919 23.5327 20.232V20.3925H23.6931C24.3352 21.6757 25.4571 22.5579 26.2587 23.6803C26.9008 24.9631 27.4617 26.2468 28.1038 27.5301C28.1836 27.4494 28.2638 27.3697 28.2638 27.3697C29.3871 26.5672 29.948 25.2844 29.948 23.3595C29.4668 22.7985 29.3866 22.2371 28.9856 21.6757C28.5048 20.8732 27.4617 20.4727 26.8201 19.8306Z" fill="white"/>
</svg>
