<svg width="123" height="135" viewBox="0 0 123 135" fill="none" xmlns="http://www.w3.org/2000/svg">
<path d="M55.726 1.44026C59.0734 -0.475757 63.4333 -0.484411 66.7778 1.44026C83.6037 10.9477 100.435 20.4403 117.258 29.9536C120.422 31.7359 122.538 35.2574 122.506 38.9033V96.104C122.53 99.9009 120.204 103.506 116.866 105.248C100.095 114.704 83.3334 124.17 66.5658 133.625C63.1492 135.579 58.7017 135.428 55.3918 133.315C50.364 130.4 45.3276 127.5 40.2993 124.588C39.2718 123.975 38.1135 123.488 37.388 122.492C38.0294 121.627 39.1761 121.519 40.1079 121.142C42.2066 120.475 44.1342 119.403 46.0622 118.364C46.5498 118.03 47.145 118.158 47.6124 118.457C51.9117 120.922 56.1731 123.459 60.4869 125.9C61.4072 126.431 62.339 125.726 63.1256 125.288C79.5827 115.986 96.0599 106.72 112.514 97.4161C113.124 97.1228 113.461 96.4757 113.411 95.8078C113.423 76.9385 113.414 58.0659 113.417 39.1966C113.487 38.4389 113.048 37.7422 112.363 37.432C95.6508 28.0202 78.947 18.594 62.2375 9.17981C61.948 8.98078 61.6051 8.87399 61.2538 8.87348C60.9025 8.87296 60.5592 8.97875 60.2691 9.17693C43.5596 18.594 26.8588 28.0289 10.1493 37.4402C9.46655 37.7508 9.00834 38.436 9.08959 39.1966C9.09248 58.0659 9.08959 76.9385 9.08959 95.8107C9.06062 96.1366 9.13219 96.4635 9.29466 96.7474C9.45713 97.0313 9.70271 97.2587 9.99832 97.3988C14.4573 99.9274 18.9221 102.438 23.384 104.958C25.8977 106.311 28.984 107.115 31.7534 106.078C34.1973 105.202 35.9105 102.708 35.8638 100.113C35.8869 81.3538 35.8523 62.5917 35.8811 43.8354C35.8201 43.0027 36.61 42.3146 37.4197 42.393C39.5622 42.3786 41.7076 42.3642 43.85 42.3988C44.7443 42.3786 45.3598 43.2753 45.2492 44.1143C45.2405 62.9922 45.2723 81.8707 45.2348 100.749C45.2405 105.78 43.1735 111.254 38.5198 113.716C32.7867 116.686 25.7005 116.056 20.0366 113.208C15.1333 110.761 10.4541 107.873 5.63788 105.251C2.29098 103.519 -0.0231457 99.8985 0.000413831 96.1045V38.9033C-0.0346851 35.1819 2.16597 31.5965 5.42873 29.8401C22.1964 20.3773 38.9612 10.9074 55.726 1.44026Z" fill="white"/>
<path d="M70.354 41.0636C77.6671 40.5929 85.4961 40.7847 92.0769 44.3874C97.172 47.1482 99.9968 52.9424 100.087 58.603C99.9444 59.3665 99.1462 59.7877 98.4173 59.7353C96.2955 59.7324 94.1732 59.7641 92.0514 59.7209C91.1514 59.7555 90.6283 58.9256 90.5153 58.1299C89.9056 55.4215 88.4286 52.7391 85.8793 51.4327C81.966 49.4734 77.4286 49.572 73.1615 49.6129C70.0463 49.7782 66.6965 50.048 64.0574 51.8799C62.0313 53.2675 61.4158 56.0686 62.139 58.3246C62.8208 59.9444 64.6906 60.4671 66.2205 60.9488C75.0337 63.2538 84.373 63.0245 93.0179 66.0579C96.597 67.2945 100.098 69.6986 101.323 73.446C102.926 78.4685 102.223 84.4719 98.65 88.5039C95.7522 91.822 91.5317 93.6279 87.3222 94.6087C81.7223 95.8574 75.9107 95.8891 70.2237 95.3347C64.8762 94.7251 59.3113 93.3201 55.1831 89.6766C51.653 86.6114 49.9289 81.8356 50.1 77.2261C50.1409 76.4477 50.916 75.9048 51.6617 75.9688C53.7984 75.9515 55.9351 75.9457 58.0718 75.9717C58.9253 75.9106 59.558 76.6482 59.6018 77.4526C59.996 80.033 60.9658 82.7414 63.216 84.2714C67.5586 87.073 73.0076 86.8812 77.9801 86.9595C82.0997 86.7768 86.7241 86.7215 90.0859 83.9987C91.8596 82.4457 92.3851 79.8475 91.9058 77.6122C91.3865 75.725 89.4123 74.8456 87.717 74.2706C79.0168 71.5184 69.5732 72.5171 60.9572 69.4048C57.4593 68.1686 54.0768 65.8314 52.7329 62.2379C50.8578 57.1519 51.717 50.861 55.6649 46.965C59.5142 43.0897 65.0709 41.5973 70.354 41.0631V41.0636Z" fill="white"/>
</svg>
