<svg width="118" height="116" viewBox="0 0 118 116" fill="none" xmlns="http://www.w3.org/2000/svg">
<g clip-path="url(#clip0_1_680)">
<path d="M20.8958 2.01178H97.1042C107.554 2.01178 116 10.458 116 20.9076V94.1659C116 104.616 107.554 113.062 97.1042 113.062H20.8958C10.4462 113.062 2 104.616 2 94.1659V20.9076C2 10.458 10.4462 2.01178 20.8958 2.01178Z" stroke="white" stroke-width="4"/>
<path d="M26.55 80.6943V30.1018C26.55 29.7577 26.6975 29.561 27.0417 29.561C27.8775 29.561 28.6642 29.561 29.795 29.5118C30.975 29.4627 32.2042 29.4627 33.5317 29.4135C34.8592 29.3643 36.285 29.3643 37.8092 29.3152C39.3333 29.266 40.8083 29.266 42.2833 29.266C46.315 29.266 49.6583 29.7577 52.4117 30.7902C54.87 31.626 57.1317 33.0027 59 34.8218C60.5733 36.3952 61.8025 38.3127 62.5892 40.4268C63.3267 42.4918 63.72 44.606 63.72 46.8185C63.72 51.0468 62.7367 54.5377 60.77 57.291C58.8033 60.0443 56.05 62.1093 52.8542 63.2893C49.5108 64.5185 45.8233 64.961 41.7917 64.961C40.6117 64.961 39.825 64.961 39.3333 64.9118C38.8417 64.8627 38.1533 64.8627 37.2192 64.8627V80.6452C37.2683 80.9893 37.0225 81.2843 36.6783 81.3335H27.14C26.7467 81.3335 26.55 81.1368 26.55 80.6943ZM37.2683 39.0502V55.5702C37.9567 55.6193 38.5958 55.6685 39.1858 55.6685H41.7917C43.7092 55.6685 45.6267 55.3735 47.4458 54.7835C49.0192 54.341 50.3958 53.4068 51.4775 52.1777C52.51 50.9485 53.0017 49.2768 53.0017 47.1135C53.0508 45.5893 52.6575 44.0652 51.8708 42.7377C51.035 41.4593 49.855 40.476 48.4292 39.9352C46.61 39.1977 44.6433 38.9027 42.6275 38.9518C41.3492 38.9518 40.2183 38.9518 39.2842 39.001C38.3008 38.9518 37.6125 39.001 37.2683 39.0502ZM94.4 52.571C92.925 51.7843 91.3517 51.2435 89.68 50.8993C87.8608 50.506 86.0417 50.2602 84.1733 50.2602C83.19 50.211 82.1575 50.3585 81.2233 50.6043C80.5842 50.7518 80.0433 51.096 79.6992 51.5877C79.4533 51.981 79.3058 52.4727 79.3058 52.9152C79.3058 53.3577 79.5025 53.8002 79.7975 54.1935C80.24 54.7343 80.83 55.1768 81.4692 55.521C82.6 56.111 83.78 56.6518 84.96 57.1435C87.615 58.0285 90.1717 59.2577 92.5317 60.7327C94.1542 61.7652 95.4817 63.1418 96.4158 64.8135C97.2025 66.3868 97.5958 68.1077 97.5467 69.8777C97.5958 72.1885 96.9075 74.4993 95.6292 76.4168C94.2525 78.3835 92.335 79.9077 90.1225 80.7927C87.7133 81.8252 84.7633 82.366 81.2233 82.366C78.9617 82.366 76.7492 82.1693 74.5367 81.7268C72.8158 81.4318 71.095 80.891 69.5217 80.1535C69.1775 79.9568 68.9317 79.6127 68.9808 79.2193V70.6643C68.9808 70.5168 69.03 70.3202 69.1775 70.2218C69.325 70.1235 69.4725 70.1727 69.62 70.271C71.5375 71.4018 73.5533 72.1885 75.7167 72.6802C77.585 73.1718 79.5517 73.4177 81.5183 73.4177C83.3867 73.4177 84.7142 73.1718 85.5992 72.7293C86.3858 72.3852 86.9267 71.5493 86.9267 70.6643C86.9267 69.976 86.5333 69.3368 85.7467 68.6977C84.96 68.0585 83.3375 67.321 80.9283 66.3868C78.4208 65.5018 76.11 64.3218 73.9467 62.8468C72.4225 61.7652 71.1442 60.3393 70.21 58.6677C69.4233 57.0943 69.03 55.3735 69.0792 53.6527C69.0792 51.5385 69.6692 49.5227 70.7508 47.7035C71.98 45.7368 73.7992 44.1635 75.9133 43.1802C78.2242 42.0002 81.125 41.4593 84.6158 41.4593C86.6317 41.4593 88.6967 41.6068 90.7125 41.9018C92.1875 42.0985 93.6133 42.4918 94.9408 43.0327C95.1375 43.0818 95.3342 43.2785 95.4325 43.4752C95.4817 43.6718 95.5308 43.8685 95.5308 44.0652V52.0793C95.5308 52.276 95.4325 52.4727 95.285 52.571C94.8425 52.6693 94.5967 52.6693 94.4 52.571Z" fill="white"/>
</g>
<defs>
<clipPath id="clip0_1_680">
<rect width="118" height="115.074" fill="white"/>
</clipPath>
</defs>
</svg>
