<svg width="235" height="74" viewBox="0 0 235 74" fill="none" xmlns="http://www.w3.org/2000/svg">
<rect x="2" y="2" width="231" height="70" rx="8" fill="black" stroke="#84B6C6" stroke-width="4"/>
<path d="M34.2756 50V23.8182H44.6051C46.5909 23.8182 48.2827 24.1974 49.6804 24.956C51.0781 25.706 52.1435 26.75 52.8764 28.0881C53.6179 29.4176 53.9886 30.9517 53.9886 32.6903C53.9886 34.429 53.6136 35.9631 52.8636 37.2926C52.1136 38.6222 51.027 39.6577 49.6037 40.3991C48.1889 41.1406 46.4759 41.5114 44.4645 41.5114H37.8807V37.0753H43.5696C44.6349 37.0753 45.5128 36.892 46.2031 36.5256C46.902 36.1506 47.4219 35.6349 47.7628 34.9787C48.1122 34.3139 48.2869 33.5511 48.2869 32.6903C48.2869 31.821 48.1122 31.0625 47.7628 30.4148C47.4219 29.7585 46.902 29.2514 46.2031 28.8935C45.5043 28.527 44.6179 28.3438 43.544 28.3438H39.8111V50H34.2756ZM57.4819 50V30.3636H62.7617V33.7898H62.9663C63.3242 32.571 63.9251 31.6506 64.7688 31.0284C65.6126 30.3977 66.5842 30.0824 67.6836 30.0824C67.9563 30.0824 68.2504 30.0994 68.5657 30.1335C68.881 30.1676 69.158 30.2145 69.3967 30.2741V35.1065C69.141 35.0298 68.7873 34.9616 68.3356 34.902C67.8839 34.8423 67.4705 34.8125 67.0955 34.8125C66.2944 34.8125 65.5785 34.9872 64.9478 35.3366C64.3256 35.6776 63.8313 36.1548 63.4648 36.7685C63.1069 37.3821 62.9279 38.0895 62.9279 38.8906V50H57.4819ZM80.1705 50.3835C78.1847 50.3835 76.4673 49.9616 75.0185 49.1179C73.5781 48.2656 72.4659 47.081 71.6818 45.5639C70.8977 44.0384 70.5057 42.2699 70.5057 40.2585C70.5057 38.2301 70.8977 36.4574 71.6818 34.9403C72.4659 33.4148 73.5781 32.2301 75.0185 31.3864C76.4673 30.5341 78.1847 30.108 80.1705 30.108C82.1562 30.108 83.8693 30.5341 85.3097 31.3864C86.7585 32.2301 87.875 33.4148 88.6591 34.9403C89.4432 36.4574 89.8352 38.2301 89.8352 40.2585C89.8352 42.2699 89.4432 44.0384 88.6591 45.5639C87.875 47.081 86.7585 48.2656 85.3097 49.1179C83.8693 49.9616 82.1562 50.3835 80.1705 50.3835ZM80.196 46.1648C81.0994 46.1648 81.8537 45.9091 82.4588 45.3977C83.0639 44.8778 83.5199 44.1705 83.8267 43.2756C84.142 42.3807 84.2997 41.3622 84.2997 40.2202C84.2997 39.0781 84.142 38.0597 83.8267 37.1648C83.5199 36.2699 83.0639 35.5625 82.4588 35.0426C81.8537 34.5227 81.0994 34.2628 80.196 34.2628C79.2841 34.2628 78.517 34.5227 77.8949 35.0426C77.2813 35.5625 76.8168 36.2699 76.5014 37.1648C76.1946 38.0597 76.0412 39.0781 76.0412 40.2202C76.0412 41.3622 76.1946 42.3807 76.5014 43.2756C76.8168 44.1705 77.2813 44.8778 77.8949 45.3977C78.517 45.9091 79.2841 46.1648 80.196 46.1648ZM93.3764 30.3636H98.8224V50.9716C98.8224 52.4886 98.5241 53.7159 97.9276 54.6534C97.331 55.5909 96.4744 56.277 95.358 56.7116C94.25 57.1463 92.9247 57.3636 91.3821 57.3636C91.1946 57.3636 91.0156 57.3594 90.8452 57.3509C90.6662 57.3509 90.4787 57.3466 90.2827 57.3381V53.081C90.4276 53.0895 90.5554 53.0938 90.6662 53.0938C90.7685 53.1023 90.8793 53.1065 90.9986 53.1065C91.8764 53.1065 92.4901 52.919 92.8395 52.544C93.1974 52.1776 93.3764 51.6236 93.3764 50.8821V30.3636ZM96.0866 27.8324C95.2855 27.8324 94.5952 27.5639 94.0156 27.027C93.4361 26.4815 93.1463 25.8295 93.1463 25.071C93.1463 24.321 93.4361 23.6776 94.0156 23.1406C94.5952 22.5952 95.2855 22.3224 96.0866 22.3224C96.9048 22.3224 97.5994 22.5952 98.1705 23.1406C98.75 23.6776 99.0398 24.321 99.0398 25.071C99.0398 25.8295 98.75 26.4815 98.1705 27.027C97.5994 27.5639 96.9048 27.8324 96.0866 27.8324ZM112.134 50.3835C110.114 50.3835 108.375 49.9744 106.918 49.1562C105.469 48.3295 104.353 47.1619 103.569 45.6534C102.784 44.1364 102.392 42.3423 102.392 40.2713C102.392 38.2514 102.784 36.4787 103.569 34.9531C104.353 33.4276 105.456 32.2386 106.88 31.3864C108.311 30.5341 109.99 30.108 111.917 30.108C113.212 30.108 114.418 30.3168 115.534 30.7344C116.659 31.1435 117.64 31.7614 118.475 32.5881C119.319 33.4148 119.975 34.4545 120.444 35.7074C120.912 36.9517 121.147 38.4091 121.147 40.0795V41.5753H104.566V38.2003H116.02C116.02 37.4162 115.85 36.7216 115.509 36.1165C115.168 35.5114 114.695 35.0384 114.09 34.6974C113.493 34.348 112.799 34.1733 112.006 34.1733C111.179 34.1733 110.446 34.3651 109.807 34.7486C109.176 35.1236 108.682 35.6307 108.324 36.2699C107.966 36.9006 107.783 37.6037 107.775 38.3793V41.5881C107.775 42.5597 107.953 43.3991 108.311 44.1065C108.678 44.8139 109.194 45.3594 109.858 45.7429C110.523 46.1264 111.311 46.3182 112.223 46.3182C112.828 46.3182 113.382 46.233 113.885 46.0625C114.388 45.892 114.819 45.6364 115.176 45.2955C115.534 44.9545 115.807 44.5369 115.995 44.0426L121.032 44.375C120.776 45.5852 120.252 46.642 119.459 47.5455C118.675 48.4403 117.661 49.1392 116.417 49.642C115.181 50.1364 113.753 50.3835 112.134 50.3835ZM133.573 50.3835C131.561 50.3835 129.831 49.9574 128.382 49.1051C126.942 48.2443 125.834 47.0511 125.059 45.5256C124.292 44 123.908 42.2443 123.908 40.2585C123.908 38.2472 124.296 36.483 125.071 34.9659C125.855 33.4403 126.968 32.2514 128.408 31.3991C129.848 30.5384 131.561 30.108 133.547 30.108C135.26 30.108 136.76 30.419 138.047 31.0412C139.334 31.6634 140.353 32.5369 141.103 33.6619C141.853 34.7869 142.266 36.108 142.343 37.625H137.203C137.059 36.6449 136.675 35.8565 136.053 35.2599C135.439 34.6548 134.634 34.3523 133.637 34.3523C132.793 34.3523 132.056 34.5824 131.425 35.0426C130.803 35.4943 130.317 36.1548 129.968 37.0241C129.618 37.8935 129.444 38.946 129.444 40.1818C129.444 41.4347 129.614 42.5 129.955 43.3778C130.304 44.2557 130.794 44.9247 131.425 45.3849C132.056 45.8452 132.793 46.0753 133.637 46.0753C134.259 46.0753 134.817 45.9474 135.311 45.6918C135.814 45.4361 136.228 45.0653 136.551 44.5795C136.884 44.0852 137.101 43.4929 137.203 42.8026H142.343C142.257 44.3026 141.848 45.6236 141.115 46.7656C140.391 47.8991 139.39 48.7855 138.111 49.4247C136.833 50.0639 135.32 50.3835 133.573 50.3835ZM156.274 30.3636V34.4545H144.449V30.3636H156.274ZM147.134 25.6591H152.58V43.9659C152.58 44.4687 152.656 44.8608 152.81 45.142C152.963 45.4148 153.176 45.6065 153.449 45.7173C153.73 45.8281 154.054 45.8835 154.42 45.8835C154.676 45.8835 154.932 45.8622 155.188 45.8196C155.443 45.7685 155.639 45.7301 155.776 45.7045L156.632 49.7571C156.359 49.8423 155.976 49.9403 155.482 50.0511C154.987 50.1705 154.386 50.2429 153.679 50.2685C152.366 50.3196 151.216 50.1449 150.227 49.7443C149.247 49.3437 148.484 48.7216 147.939 47.8778C147.393 47.0341 147.125 45.9687 147.134 44.6818V25.6591ZM175.914 35.9631L170.928 36.2699C170.843 35.8437 170.659 35.4602 170.378 35.1193C170.097 34.7699 169.726 34.4929 169.266 34.2884C168.814 34.0753 168.273 33.9688 167.642 33.9688C166.799 33.9688 166.087 34.1477 165.507 34.5057C164.928 34.8551 164.638 35.3239 164.638 35.9119C164.638 36.3807 164.826 36.777 165.201 37.1009C165.576 37.4247 166.219 37.6847 167.131 37.8807L170.685 38.5966C172.594 38.9886 174.017 39.6193 174.955 40.4886C175.892 41.358 176.361 42.5 176.361 43.9148C176.361 45.2017 175.982 46.331 175.223 47.3026C174.473 48.2741 173.442 49.0327 172.13 49.5781C170.826 50.1151 169.321 50.3835 167.617 50.3835C165.017 50.3835 162.946 49.8423 161.404 48.7599C159.87 47.669 158.971 46.1861 158.706 44.3111L164.063 44.0298C164.225 44.8224 164.617 45.4276 165.239 45.8452C165.861 46.2543 166.658 46.4588 167.63 46.4588C168.584 46.4588 169.351 46.2756 169.931 45.9091C170.519 45.5341 170.817 45.0526 170.826 44.4645C170.817 43.9702 170.608 43.5653 170.199 43.25C169.79 42.9261 169.159 42.679 168.307 42.5085L164.907 41.831C162.989 41.4474 161.561 40.7827 160.624 39.8366C159.695 38.8906 159.23 37.6847 159.23 36.2188C159.23 34.9574 159.571 33.8707 160.253 32.9588C160.944 32.0469 161.911 31.3438 163.155 30.8494C164.408 30.3551 165.874 30.108 167.553 30.108C170.033 30.108 171.985 30.6321 173.408 31.6804C174.84 32.7287 175.675 34.1562 175.914 35.9631Z" fill="white"/>
</svg>
