<svg width="118" height="118" viewBox="0 0 118 118" fill="none" xmlns="http://www.w3.org/2000/svg">
<g clip-path="url(#clip0_1_518)">
<path d="M91.0648 15.3912H26.9347C24.8098 15.3912 23.087 17.1139 23.087 19.2389V65.4124C23.087 67.5374 24.8098 69.2601 26.9347 69.2601H91.0646C93.1895 69.2601 94.9123 67.5374 94.9123 65.4124V19.2391C94.9125 17.1139 93.1898 15.3912 91.0648 15.3912ZM47.4564 61.5648H30.7826V23.0868H47.4564V61.5648ZM87.2169 61.5648H55.152V46.1736H87.2169V61.5648ZM87.2169 38.478H55.152V23.0868H87.2169V38.478Z" fill="#84B6C6"/>
<path d="M114.152 76.956H110.305V7.6956H114.152C116.277 7.6956 118 5.97284 118 3.84768C118 1.72276 116.277 0 114.152 0C111.807 0 7.38673 0 3.84811 0C1.72318 0 0.000427246 1.72276 0.000427246 3.84768C0.000427246 5.97261 1.72318 7.6956 3.84811 7.6956H7.69579V76.956H3.84811C1.72318 76.956 0.000427246 78.6787 0.000427246 80.8037C0.000427246 82.9286 1.72318 84.6513 3.84811 84.6513C5.8903 84.6513 52.3658 84.6513 55.1522 84.6513V103.682L34.6964 110.501C32.6805 111.173 31.5908 113.352 32.2629 115.368C32.9356 117.386 35.1161 118.473 37.1302 117.802L59.0003 110.512L80.8705 117.802C82.8859 118.473 85.0652 117.384 85.7377 115.368C86.4098 113.352 85.3201 111.173 83.3042 110.501L62.8485 103.682V84.6513C65.6381 84.6513 112.111 84.6513 114.153 84.6513C116.277 84.6513 118 82.9286 118 80.8037C118 78.6787 116.277 76.956 114.152 76.956ZM102.608 76.956H15.3916V7.6956H102.608V76.956Z" fill="white"/>
</g>
<defs>
<clipPath id="clip0_1_518">
<rect width="118" height="118" fill="white"/>
</clipPath>
</defs>
</svg>
