<svg width="118" height="112" viewBox="0 0 118 112" fill="none" xmlns="http://www.w3.org/2000/svg">
<g clip-path="url(#clip0_1_678)">
<path d="M81.7615 78.2363C86.116 77.7855 89.4196 74.0316 89.2693 69.5264C89.1195 65.0217 85.3652 61.4176 80.8604 61.4176H80.5603C75.9049 61.5679 72.3013 65.472 72.4515 70.127C72.6018 72.3796 73.5025 74.3317 74.8539 75.6832C69.7486 85.7445 61.9403 93.1025 50.2279 99.2592C42.2693 103.464 34.0107 104.966 25.7521 103.915C18.9948 103.014 13.7392 100.011 10.4352 95.0545C5.63035 87.6966 5.18001 79.7376 9.23442 71.779C12.0876 66.0726 16.5919 61.868 19.4451 59.7656C18.8445 57.8135 17.9434 54.51 17.493 52.1076C-4.28027 67.8749 -2.02767 89.1983 4.57941 99.2592C9.53449 106.768 19.5954 111.423 30.7072 111.423C33.7102 111.423 36.7132 111.122 39.7167 110.372C58.9373 106.618 73.5029 95.2048 81.7615 78.2363ZM108.19 59.6158C96.7775 46.2509 79.9597 38.893 60.7391 38.893H58.3367C56.9852 36.19 54.132 34.3878 50.9788 34.3878H50.6782C46.0237 34.538 42.4201 38.4422 42.5699 43.0977C42.7201 47.6024 46.474 51.2065 50.9788 51.2065H51.2788C54.5824 51.0562 57.4356 48.9539 58.6368 46.1007H61.3397C72.7521 46.1007 83.5634 49.4042 93.3242 55.8615C100.832 60.817 106.238 67.2743 109.241 75.0826C111.793 81.3896 111.643 87.5463 108.94 92.8024C104.736 100.761 97.6786 105.116 88.3686 105.116C82.3621 105.116 76.6562 103.314 73.6527 101.962C72.0012 103.464 68.9977 105.866 66.8954 107.368C73.3527 110.371 79.9597 112.023 86.2663 112.023C100.682 112.023 111.343 104.064 115.398 96.1059C119.752 87.3961 119.451 72.3796 108.19 59.6158ZM31.9084 80.7885C32.0587 85.2937 35.8125 88.8973 40.3173 88.8973H40.6178C45.2728 88.7475 48.8764 84.8429 48.7262 80.1879C48.5764 75.6827 44.822 72.0791 40.3173 72.0791H40.0172C39.7167 72.0791 39.2659 72.0791 38.9663 72.2289C32.8095 62.0178 30.2569 50.9059 31.158 38.8925C31.7581 29.8826 34.7616 22.0738 40.0172 15.6166C44.3717 10.0604 52.7806 7.35748 58.487 7.20768C74.4036 6.90715 81.1605 26.7288 81.6113 34.6879C83.5633 35.1382 86.8669 36.1896 89.1195 36.9405C87.3172 12.614 72.3013 0 57.8864 0C44.3717 0 31.9084 9.76081 26.9529 24.1766C20.0457 43.3977 24.5504 61.868 32.9593 76.434C32.2089 77.485 31.7581 79.137 31.9084 80.789V80.7885Z" fill="white"/>
</g>
<defs>
<clipPath id="clip0_1_678">
<rect width="118" height="112" fill="white"/>
</clipPath>
</defs>
</svg>
