<svg width="213" height="67" viewBox="0 0 213 67" fill="none" xmlns="http://www.w3.org/2000/svg">
<rect width="213" height="67" rx="10" fill="white"/>
<path d="M42.8963 45V23.1818H51.5043C53.152 23.1818 54.5582 23.4766 55.723 24.0661C56.8949 24.6484 57.7862 25.4759 58.397 26.5483C59.0149 27.6136 59.3239 28.8672 59.3239 30.3089C59.3239 31.7578 59.0114 33.0043 58.3864 34.0483C57.7614 35.0852 56.8558 35.8807 55.6697 36.4347C54.4908 36.9886 53.0632 37.2656 51.3871 37.2656H45.6236V33.5582H50.6413C51.522 33.5582 52.2536 33.4375 52.8359 33.196C53.4183 32.9545 53.8516 32.5923 54.1357 32.1094C54.4268 31.6264 54.5724 31.0263 54.5724 30.3089C54.5724 29.5845 54.4268 28.9737 54.1357 28.4766C53.8516 27.9794 53.4148 27.603 52.8253 27.3473C52.2429 27.0845 51.5078 26.9531 50.62 26.9531H47.5092V45H42.8963ZM54.679 35.071L60.1016 45H55.0092L49.7038 35.071H54.679ZM62.5838 45V23.1818H77.2855V26.9851H67.1967V32.1839H76.5291V35.9872H67.1967V41.1967H77.3281V45H62.5838ZM92.7889 29.4567C92.7037 28.5973 92.3379 27.9297 91.6916 27.4538C91.0453 26.978 90.1681 26.7401 89.0602 26.7401C88.3074 26.7401 87.6717 26.8466 87.1532 27.0597C86.6348 27.2656 86.237 27.5533 85.96 27.9226C85.6902 28.2919 85.5552 28.7109 85.5552 29.1797C85.541 29.5703 85.6227 29.9112 85.8002 30.2024C85.9849 30.4936 86.237 30.7457 86.5566 30.9588C86.8762 31.1648 87.2456 31.3459 87.6646 31.5021C88.0836 31.6513 88.5311 31.7791 89.0069 31.8857L90.9672 32.3544C91.9189 32.5675 92.7924 32.8516 93.5879 33.2067C94.3833 33.5618 95.0723 33.9986 95.6547 34.517C96.237 35.0355 96.688 35.6463 97.0076 36.3494C97.3343 37.0526 97.5012 37.8587 97.5083 38.7678C97.5012 40.103 97.1603 41.2607 96.4856 42.2408C95.818 43.2138 94.8521 43.9702 93.5879 44.5099C92.3308 45.0426 90.8145 45.3089 89.0389 45.3089C87.2775 45.3089 85.7434 45.0391 84.4366 44.4993C83.1369 43.9595 82.1213 43.1605 81.3897 42.1023C80.6653 41.0369 80.2853 39.7195 80.2498 38.1499H84.7136C84.7633 38.8814 84.9728 39.4922 85.3422 39.9822C85.7186 40.4652 86.2193 40.831 86.8443 41.0795C87.4764 41.321 88.1902 41.4418 88.9856 41.4418C89.7669 41.4418 90.4451 41.3281 91.0204 41.1009C91.6028 40.8736 92.0538 40.5575 92.3734 40.1527C92.693 39.7479 92.8528 39.2827 92.8528 38.7571C92.8528 38.267 92.7072 37.8551 92.416 37.5213C92.1319 37.1875 91.7129 36.9034 91.1589 36.669C90.612 36.4347 89.9409 36.2216 89.1454 36.0298L86.7697 35.4332C84.9302 34.9858 83.4778 34.2862 82.4125 33.3345C81.3471 32.3828 80.818 31.1009 80.8251 29.4886C80.818 28.1676 81.1696 27.0135 81.8798 26.0263C82.5971 25.0391 83.5808 24.2685 84.8308 23.7145C86.0808 23.1605 87.5012 22.8835 89.0922 22.8835C90.7115 22.8835 92.1248 23.1605 93.3322 23.7145C94.5467 24.2685 95.4913 25.0391 96.166 26.0263C96.8407 27.0135 97.1887 28.157 97.21 29.4567H92.7889ZM114.088 23.1818H118.701V37.3509C118.701 38.9418 118.321 40.3338 117.561 41.527C116.808 42.7202 115.753 43.6506 114.397 44.3182C113.04 44.9787 111.46 45.3089 109.656 45.3089C107.845 45.3089 106.261 44.9787 104.904 44.3182C103.548 43.6506 102.493 42.7202 101.74 41.527C100.988 40.3338 100.611 38.9418 100.611 37.3509V23.1818H105.224V36.9567C105.224 37.7876 105.405 38.5263 105.767 39.1726C106.137 39.8189 106.655 40.3267 107.323 40.696C107.99 41.0653 108.768 41.25 109.656 41.25C110.551 41.25 111.328 41.0653 111.989 40.696C112.657 40.3267 113.172 39.8189 113.534 39.1726C113.903 38.5263 114.088 37.7876 114.088 36.9567V23.1818ZM122.496 23.1818H128.185L134.193 37.8409H134.449L140.458 23.1818H146.146V45H141.672V30.799H141.491L135.845 44.8935H132.798L127.151 30.7457H126.97V45H122.496V23.1818ZM149.947 45V23.1818H164.649V26.9851H154.56V32.1839H163.892V35.9872H154.56V41.1967H164.691V45H149.947Z" fill="#84B6C6"/>
</svg>
