<svg width="118" height="118" viewBox="0 0 118 118" fill="none" xmlns="http://www.w3.org/2000/svg">
<g clip-path="url(#clip0_1_530)">
<path d="M47.0155 86.1446L62.6876 59L47.0158 31.8554H15.6718L0 59L15.6718 86.1446H47.0155ZM19.93 39.2304H42.7579L54.1716 59L42.7579 78.7696H19.93L8.51575 59L19.93 39.2304Z" fill="white"/>
<path d="M70.9845 0L55.3126 27.1443L70.9845 54.2887H102.328L118 27.1443L102.328 0H70.9845ZM98.0703 46.9139H75.2423L63.8284 27.1446L75.2423 7.37524H98.0703L109.484 27.1446L98.0703 46.9139Z" fill="white"/>
<path d="M70.9845 63.7111L55.3126 90.8554L70.9845 118H102.328L118 90.8554L102.328 63.7111H70.9845ZM98.0703 110.625H75.2423L63.8284 90.8554L75.2423 71.0861H98.0703L109.484 90.8554L98.0703 110.625Z" fill="#84B6C6"/>
</g>
<defs>
<clipPath id="clip0_1_530">
<rect width="118" height="118" fill="white"/>
</clipPath>
</defs>
</svg>
