<svg width="235" height="74" viewBox="0 0 235 74" fill="none" xmlns="http://www.w3.org/2000/svg">
<rect x="2" y="2" width="231" height="70" rx="8" fill="black" stroke="#84B6C6" stroke-width="4"/>
<path d="M48.4787 31.348C48.3764 30.3168 47.9375 29.5156 47.1619 28.9446C46.3864 28.3736 45.3338 28.0881 44.0043 28.0881C43.1009 28.0881 42.3381 28.2159 41.7159 28.4716C41.0938 28.7188 40.6165 29.0639 40.2841 29.5071C39.9602 29.9503 39.7983 30.4531 39.7983 31.0156C39.7813 31.4844 39.8793 31.8935 40.0923 32.2429C40.3139 32.5923 40.6165 32.8949 41 33.1506C41.3835 33.3977 41.8267 33.6151 42.3295 33.8026C42.8324 33.9815 43.3693 34.1349 43.9403 34.2628L46.2926 34.8253C47.4347 35.081 48.483 35.4219 49.4375 35.848C50.392 36.2741 51.2188 36.7983 51.9176 37.4205C52.6165 38.0426 53.1577 38.7756 53.5412 39.6193C53.9332 40.4631 54.1335 41.4304 54.142 42.5213C54.1335 44.1236 53.7244 45.5128 52.9148 46.6889C52.1136 47.8565 50.9545 48.7642 49.4375 49.4119C47.929 50.0511 46.1094 50.3707 43.9787 50.3707C41.8651 50.3707 40.0241 50.0469 38.456 49.3991C36.8963 48.7514 35.6776 47.7926 34.7997 46.5227C33.9304 45.2443 33.4744 43.6634 33.4318 41.7798H38.7884C38.848 42.6577 39.0994 43.3906 39.5426 43.9787C39.9943 44.5582 40.5952 44.9972 41.3452 45.2955C42.1037 45.5852 42.9602 45.7301 43.9148 45.7301C44.8523 45.7301 45.6662 45.5937 46.3565 45.321C47.0554 45.0483 47.5966 44.669 47.9801 44.1832C48.3636 43.6974 48.5554 43.1392 48.5554 42.5085C48.5554 41.9205 48.3807 41.4261 48.0312 41.0256C47.6903 40.625 47.1875 40.2841 46.5227 40.0028C45.8665 39.7216 45.0611 39.4659 44.1065 39.2358L41.2557 38.5199C39.0483 37.983 37.3054 37.1435 36.027 36.0014C34.7486 34.8594 34.1136 33.321 34.1222 31.3864C34.1136 29.8011 34.5355 28.4162 35.3878 27.2315C36.2486 26.0469 37.429 25.1222 38.929 24.4574C40.429 23.7926 42.1335 23.4602 44.0426 23.4602C45.9858 23.4602 47.6818 23.7926 49.1307 24.4574C50.5881 25.1222 51.7216 26.0469 52.5312 27.2315C53.3409 28.4162 53.7585 29.7884 53.7841 31.348H48.4787ZM62.6978 44.3494L62.7106 37.8168H63.5032L69.793 30.3636H76.0444L67.5941 40.233H66.3029L62.6978 44.3494ZM57.7631 50V23.8182H63.2092V50H57.7631ZM70.0359 50L64.2575 41.4474L67.8881 37.5994L76.4151 50H70.0359ZM78.7163 50V30.3636H84.1623V50H78.7163ZM81.4521 27.8324C80.6424 27.8324 79.9478 27.5639 79.3683 27.027C78.7972 26.4815 78.5117 25.8295 78.5117 25.071C78.5117 24.321 78.7972 23.6776 79.3683 23.1406C79.9478 22.5952 80.6424 22.3224 81.4521 22.3224C82.2617 22.3224 82.9521 22.5952 83.5231 23.1406C84.1026 23.6776 84.3924 24.321 84.3924 25.071C84.3924 25.8295 84.1026 26.4815 83.5231 27.027C82.9521 27.5639 82.2617 27.8324 81.4521 27.8324ZM93.9709 23.8182V50H88.5249V23.8182H93.9709ZM103.779 23.8182V50H98.3335V23.8182H103.779ZM124.48 35.9631L119.494 36.2699C119.409 35.8437 119.226 35.4602 118.945 35.1193C118.663 34.7699 118.293 34.4929 117.832 34.2884C117.381 34.0753 116.839 33.9688 116.209 33.9688C115.365 33.9688 114.653 34.1477 114.074 34.5057C113.494 34.8551 113.205 35.3239 113.205 35.9119C113.205 36.3807 113.392 36.777 113.767 37.1009C114.142 37.4247 114.786 37.6847 115.697 37.8807L119.251 38.5966C121.161 38.9886 122.584 39.6193 123.521 40.4886C124.459 41.358 124.928 42.5 124.928 43.9148C124.928 45.2017 124.548 46.331 123.79 47.3026C123.04 48.2741 122.009 49.0327 120.696 49.5781C119.392 50.1151 117.888 50.3835 116.183 50.3835C113.584 50.3835 111.513 49.8423 109.97 48.7599C108.436 47.669 107.537 46.1861 107.273 44.3111L112.629 44.0298C112.791 44.8224 113.183 45.4276 113.805 45.8452C114.428 46.2543 115.224 46.4588 116.196 46.4588C117.151 46.4588 117.918 46.2756 118.497 45.9091C119.085 45.5341 119.384 45.0526 119.392 44.4645C119.384 43.9702 119.175 43.5653 118.766 43.25C118.357 42.9261 117.726 42.679 116.874 42.5085L113.473 41.831C111.555 41.4474 110.128 40.7827 109.19 39.8366C108.261 38.8906 107.797 37.6847 107.797 36.2188C107.797 34.9574 108.138 33.8707 108.82 32.9588C109.51 32.0469 110.477 31.3438 111.722 30.8494C112.974 30.3551 114.44 30.108 116.119 30.108C118.599 30.108 120.551 30.6321 121.974 31.6804C123.406 32.7287 124.241 34.1562 124.48 35.9631Z" fill="white"/>
</svg>
