<svg width="272" height="80" viewBox="0 0 272 80" fill="none" xmlns="http://www.w3.org/2000/svg">
<rect width="272" height="80" rx="10" fill="black"/>
<path d="M95.6477 34.4205C95.5568 33.5038 95.1667 32.7917 94.4773 32.2841C93.7879 31.7765 92.8523 31.5227 91.6705 31.5227C90.8674 31.5227 90.1894 31.6364 89.6364 31.8636C89.0833 32.0833 88.6591 32.3902 88.3636 32.7841C88.0758 33.178 87.9318 33.625 87.9318 34.125C87.9167 34.5417 88.0038 34.9053 88.1932 35.2159C88.3902 35.5265 88.6591 35.7955 89 36.0227C89.3409 36.2424 89.7348 36.4356 90.1818 36.6023C90.6288 36.7614 91.1061 36.8977 91.6136 37.0114L93.7045 37.5114C94.7197 37.7386 95.6515 38.0417 96.5 38.4205C97.3485 38.7992 98.0833 39.2652 98.7045 39.8182C99.3258 40.3712 99.8068 41.0227 100.148 41.7727C100.496 42.5227 100.674 43.3826 100.682 44.3523C100.674 45.7765 100.311 47.0114 99.5909 48.0568C98.8788 49.0947 97.8485 49.9015 96.5 50.4773C95.1591 51.0455 93.5417 51.3295 91.6477 51.3295C89.7689 51.3295 88.1326 51.0417 86.7386 50.4659C85.3523 49.8902 84.2689 49.0379 83.4886 47.9091C82.7159 46.7727 82.3106 45.3674 82.2727 43.6932H87.0341C87.0871 44.4735 87.3106 45.125 87.7045 45.6477C88.1061 46.1629 88.6402 46.553 89.3068 46.8182C89.9811 47.0758 90.7424 47.2045 91.5909 47.2045C92.4242 47.2045 93.1477 47.0833 93.7614 46.8409C94.3826 46.5985 94.8636 46.2614 95.2045 45.8295C95.5455 45.3977 95.7159 44.9015 95.7159 44.3409C95.7159 43.8182 95.5606 43.3788 95.25 43.0227C94.947 42.6667 94.5 42.3636 93.9091 42.1136C93.3258 41.8636 92.6098 41.6364 91.7614 41.4318L89.2273 40.7955C87.2652 40.3182 85.7159 39.572 84.5795 38.5568C83.4432 37.5417 82.8788 36.1742 82.8864 34.4545C82.8788 33.0455 83.2538 31.8144 84.0114 30.7614C84.7765 29.7083 85.8258 28.8864 87.1591 28.2955C88.4924 27.7045 90.0076 27.4091 91.7045 27.4091C93.4318 27.4091 94.9394 27.7045 96.2273 28.2955C97.5227 28.8864 98.5303 29.7083 99.25 30.7614C99.9697 31.8144 100.341 33.0341 100.364 34.4205H95.6477ZM115.094 43.5682V33.5455H119.935V51H115.287V47.8295H115.105C114.711 48.8523 114.056 49.6742 113.139 50.2955C112.23 50.9167 111.12 51.2273 109.81 51.2273C108.643 51.2273 107.616 50.9621 106.73 50.4318C105.844 49.9015 105.151 49.1477 104.651 48.1705C104.158 47.1932 103.908 46.0227 103.901 44.6591V33.5455H108.741V43.7955C108.749 44.8258 109.026 45.6402 109.571 46.2386C110.116 46.8371 110.848 47.1364 111.764 47.1364C112.348 47.1364 112.893 47.0038 113.401 46.7386C113.908 46.4659 114.317 46.0644 114.628 45.5341C114.946 45.0038 115.101 44.3485 115.094 43.5682ZM123.898 51V27.7273H128.739V36.4773H128.886C129.098 36.0076 129.405 35.5303 129.807 35.0455C130.216 34.553 130.746 34.1439 131.398 33.8182C132.057 33.4848 132.875 33.3182 133.852 33.3182C135.125 33.3182 136.299 33.6515 137.375 34.3182C138.451 34.9773 139.311 35.9735 139.955 37.3068C140.598 38.6326 140.92 40.2955 140.92 42.2955C140.92 44.2424 140.606 45.8864 139.977 47.2273C139.356 48.5606 138.508 49.572 137.432 50.2614C136.364 50.9432 135.167 51.2841 133.841 51.2841C132.902 51.2841 132.102 51.1288 131.443 50.8182C130.792 50.5076 130.258 50.1174 129.841 49.6477C129.424 49.1705 129.106 48.6894 128.886 48.2045H128.67V51H123.898ZM128.636 42.2727C128.636 43.3106 128.78 44.2159 129.068 44.9886C129.356 45.7614 129.773 46.3636 130.318 46.7955C130.864 47.2197 131.527 47.4318 132.307 47.4318C133.095 47.4318 133.761 47.2159 134.307 46.7841C134.852 46.3447 135.265 45.7386 135.545 44.9659C135.833 44.1856 135.977 43.2879 135.977 42.2727C135.977 41.2652 135.837 40.3788 135.557 39.6136C135.277 38.8485 134.864 38.25 134.318 37.8182C133.773 37.3864 133.102 37.1705 132.307 37.1705C131.519 37.1705 130.852 37.3788 130.307 37.7955C129.769 38.2121 129.356 38.803 129.068 39.5682C128.78 40.3333 128.636 41.2348 128.636 42.2727ZM144.151 51V33.5455H148.764V36.625H148.969C149.332 35.6023 149.938 34.7955 150.787 34.2045C151.635 33.6136 152.651 33.3182 153.832 33.3182C155.029 33.3182 156.048 33.6174 156.889 34.2159C157.73 34.8068 158.291 35.6098 158.571 36.625H158.753C159.109 35.625 159.753 34.8258 160.685 34.2273C161.624 33.6212 162.734 33.3182 164.014 33.3182C165.643 33.3182 166.965 33.8371 167.98 34.875C169.003 35.9053 169.514 37.3674 169.514 39.2614V51H164.685V40.2159C164.685 39.2462 164.427 38.5189 163.912 38.0341C163.397 37.5492 162.753 37.3068 161.98 37.3068C161.101 37.3068 160.416 37.5871 159.923 38.1477C159.431 38.7008 159.185 39.4318 159.185 40.3409V51H154.491V40.1136C154.491 39.2576 154.245 38.5758 153.753 38.0682C153.268 37.5606 152.628 37.3068 151.832 37.3068C151.295 37.3068 150.81 37.4432 150.378 37.7159C149.954 37.9811 149.616 38.3561 149.366 38.8409C149.116 39.3182 148.991 39.8788 148.991 40.5227V51H144.151ZM173.338 51V33.5455H178.179V51H173.338ZM175.77 31.2955C175.05 31.2955 174.433 31.0568 173.918 30.5795C173.41 30.0947 173.156 29.5152 173.156 28.8409C173.156 28.1742 173.41 27.6023 173.918 27.125C174.433 26.6402 175.05 26.3977 175.77 26.3977C176.49 26.3977 177.103 26.6402 177.611 27.125C178.126 27.6023 178.384 28.1742 178.384 28.8409C178.384 29.5152 178.126 30.0947 177.611 30.5795C177.103 31.0568 176.49 31.2955 175.77 31.2955ZM191.341 33.5455V37.1818H180.83V33.5455H191.341ZM183.216 29.3636H188.057V45.6364C188.057 46.0833 188.125 46.4318 188.261 46.6818C188.398 46.9242 188.587 47.0947 188.83 47.1932C189.08 47.2917 189.367 47.3409 189.693 47.3409C189.92 47.3409 190.148 47.322 190.375 47.2841C190.602 47.2386 190.777 47.2045 190.898 47.1818L191.659 50.7841C191.417 50.8598 191.076 50.947 190.636 51.0455C190.197 51.1515 189.663 51.2159 189.034 51.2386C187.867 51.2841 186.845 51.1288 185.966 50.7727C185.095 50.4167 184.417 49.8636 183.932 49.1136C183.447 48.3636 183.208 47.4167 183.216 46.2727V29.3636Z" fill="white"/>
</svg>
