<svg width="118" height="118" viewBox="0 0 118 118" fill="none" xmlns="http://www.w3.org/2000/svg">
<g clip-path="url(#clip0_1_688)">
<path d="M25.8716 69.2064V74.0149H41.2116V117.675H52.0971V74.0149H67.4371V69.2949C67.4371 66.6399 67.4371 64.4864 67.3191 64.4274C67.3191 64.3389 57.9676 64.3094 46.6101 64.3094L25.9601 64.3979V69.2359L25.8716 69.2064ZM94.8131 64.2799C97.8221 64.9879 100.123 66.3449 102.188 68.4984C103.28 69.6784 104.902 71.7434 105.02 72.2744C105.02 72.4514 99.9166 75.9029 96.8191 77.8204C96.7011 77.9089 96.2291 77.4074 95.7571 76.6404C94.2231 74.4574 92.6596 73.5134 90.2111 73.3364C86.6711 73.1004 84.3111 74.9589 84.3111 78.0564C84.3111 79.0004 84.4881 79.5314 84.8421 80.2984C85.6386 81.9209 87.1136 82.8944 91.6861 84.9004C100.123 88.5289 103.781 90.9184 105.994 94.3404C108.501 98.1754 109.062 104.193 107.38 108.707C105.492 113.633 100.89 116.967 94.3116 118.058C92.2466 118.412 87.5266 118.353 85.3141 117.97C80.5941 117.085 76.0806 114.725 73.3076 111.686C72.2161 110.506 70.1216 107.35 70.2396 107.143L71.3606 106.435L75.7856 103.869L79.1191 101.922L79.8861 102.954C80.8596 104.488 83.0426 106.553 84.3111 107.261C88.1461 109.238 93.2791 108.972 95.8161 106.671C96.9076 105.668 97.3796 104.606 97.3796 103.131C97.3796 101.774 97.1731 101.155 96.4946 100.122C95.5506 98.8244 93.6626 97.7624 88.3526 95.4024C82.2461 92.8064 79.6501 91.1544 77.2311 88.6174C75.8446 87.0834 74.5761 84.6939 73.9861 82.7174C73.5436 81.0064 73.3961 76.8174 73.8091 75.1359C75.0776 69.2359 79.5321 65.1059 85.9041 63.9259C87.9691 63.5129 92.8366 63.6899 94.8721 64.2209L94.8131 64.2799Z" fill="white"/>
</g>
<rect x="2" y="2" width="114" height="114" stroke="white" stroke-width="4"/>
<defs>
<clipPath id="clip0_1_688">
<rect width="118" height="118" fill="white"/>
</clipPath>
</defs>
</svg>
